<svg xmlns="http://www.w3.org/2000/svg" xmlns:xlink="http://www.w3.org/1999/xlink" width="120" zoomAndPan="magnify" viewBox="0 0 90 89.999999" height="120" preserveAspectRatio="xMidYMid meet" version="1.0"><defs><g/><clipPath id="64b1df9e09"><path d="M 18.804688 18.804688 L 71.1875 18.804688 L 71.1875 71.1875 L 18.804688 71.1875 Z M 18.804688 18.804688 " clip-rule="nonzero"/></clipPath><clipPath id="6b9e718ff9"><path d="M 44.996094 18.804688 C 30.53125 18.804688 18.804688 30.53125 18.804688 44.996094 C 18.804688 59.460938 30.53125 71.1875 44.996094 71.1875 C 59.460938 71.1875 71.1875 59.460938 71.1875 44.996094 C 71.1875 30.53125 59.460938 18.804688 44.996094 18.804688 Z M 44.996094 18.804688 " clip-rule="nonzero"/></clipPath><clipPath id="cbe59978a2"><path d="M 27 40 L 62.992188 40 L 62.992188 55 L 27 55 Z M 27 40 " clip-rule="nonzero"/></clipPath></defs><g clip-path="url(#64b1df9e09)"><g clip-path="url(#6b9e718ff9)"><path stroke-linecap="butt" transform="matrix(0.75, 0, 0, 0.75, 18.803514, 18.803515)" fill="none" stroke-linejoin="miter" d="M 34.923442 0.00156268 C 15.636982 0.00156268 0.00156468 15.63698 0.00156468 34.92344 C 0.00156468 54.209899 15.636982 69.845316 34.923442 69.845316 C 54.209901 69.845316 69.845318 54.209899 69.845318 34.92344 C 69.845318 15.63698 54.209901 0.00156268 34.923442 0.00156268 Z M 34.923442 0.00156268 " stroke="#000000" stroke-width="2" stroke-opacity="1" stroke-miterlimit="4"/></g></g><g clip-path="url(#cbe59978a2)"><path fill="#000000" d="M 27.410156 40.191406 C 26.984375 40.191406 26.84375 40.765625 27.226562 40.949219 C 29.335938 41.960938 32.40625 44.027344 32.058594 47.375 C 31.992188 48.011719 32.53125 48.558594 33.171875 48.570312 C 36.285156 48.613281 43.695312 49.289062 44.992188 54.589844 C 46.289062 49.289062 53.695312 48.613281 56.8125 48.566406 C 57.453125 48.558594 57.988281 48.011719 57.925781 47.371094 C 57.574219 44.027344 60.644531 41.960938 62.753906 40.949219 C 63.136719 40.765625 63 40.191406 62.574219 40.191406 L 51.917969 40.191406 C 51.398438 40.191406 50.941406 40.542969 50.816406 41.050781 C 50.578125 42.007812 50.078125 43.441406 49.1875 43.640625 C 47.914062 43.941406 46.664062 44.40625 46.515625 43.582031 C 46.515625 42.921875 46.367188 42.101562 46.269531 41.640625 C 46.25 41.535156 46.101562 41.527344 46.070312 41.628906 L 45.667969 42.816406 C 45.667969 42.816406 45.515625 42.589844 44.992188 42.589844 C 44.464844 42.589844 44.316406 42.816406 44.316406 42.816406 L 43.914062 41.628906 C 43.878906 41.527344 43.734375 41.535156 43.710938 41.640625 C 43.617188 42.101562 43.46875 42.921875 43.46875 43.582031 C 43.316406 44.40625 42.066406 43.941406 40.792969 43.640625 C 39.902344 43.445312 39.402344 42.007812 39.167969 41.050781 C 39.039062 40.542969 38.585938 40.191406 38.066406 40.191406 Z M 27.410156 40.191406 " fill-opacity="1" fill-rule="nonzero"/></g><g fill="#000000" fill-opacity="1"><g transform="translate(10.418038, 41.460487)"><g><path d="M -0.859375 -5.625 L -1.578125 -2.375 L 0.265625 -1.203125 L 0.03125 -0.15625 L -7.03125 -4.828125 L -6.828125 -5.734375 L 1.5625 -6.953125 L 1.328125 -5.90625 Z M -2.34375 -2.875 L -1.75 -5.5 L -5.671875 -5 Z M -2.34375 -2.875 "/></g></g></g><g fill="#000000" fill-opacity="1"><g transform="translate(12.691316, 32.589578)"><g><path d="M 0.421875 -0.8125 L -6.609375 -4.453125 L -5.421875 -6.765625 C -5.023438 -7.523438 -4.570312 -8.015625 -4.0625 -8.234375 C -3.550781 -8.453125 -2.984375 -8.398438 -2.359375 -8.078125 C -2.023438 -7.898438 -1.78125 -7.65625 -1.625 -7.34375 C -1.46875 -7.039062 -1.40625 -6.691406 -1.4375 -6.296875 C -1.144531 -6.609375 -0.789062 -6.800781 -0.375 -6.875 C 0.0390625 -6.945312 0.457031 -6.875 0.875 -6.65625 C 1.507812 -6.332031 1.898438 -5.867188 2.046875 -5.265625 C 2.191406 -4.671875 2.070312 -4.003906 1.6875 -3.265625 Z M -2.390625 -3.453125 L 0.140625 -2.140625 L 0.921875 -3.671875 C 1.148438 -4.097656 1.21875 -4.492188 1.125 -4.859375 C 1.039062 -5.222656 0.796875 -5.507812 0.390625 -5.71875 C -0.453125 -6.15625 -1.113281 -5.914062 -1.59375 -5 Z M -3.125 -3.84375 L -2.40625 -5.25 C -2.195312 -5.65625 -2.132812 -6.03125 -2.21875 -6.375 C -2.300781 -6.71875 -2.507812 -6.976562 -2.84375 -7.15625 C -3.238281 -7.351562 -3.582031 -7.382812 -3.875 -7.25 C -4.164062 -7.113281 -4.429688 -6.820312 -4.671875 -6.375 L -5.375 -5 Z M -3.125 -3.84375 "/></g></g></g><g fill="#000000" fill-opacity="1"><g transform="translate(16.89826, 24.844012)"><g><path d="M 4.734375 -5.15625 L 4.015625 -4.390625 L 1.3125 -6.859375 L -1.375 -3.921875 L 1.328125 -1.453125 L 0.625 -0.6875 L -5.21875 -6.03125 L -4.515625 -6.796875 L -2 -4.5 L 0.6875 -7.4375 L -1.828125 -9.734375 L -1.109375 -10.5 Z M 4.734375 -5.15625 "/></g></g></g><g fill="#000000" fill-opacity="1"><g transform="translate(23.727358, 17.823557)"><g><path d="M 3.390625 -4.5625 L 0.578125 -2.796875 L 1.046875 -0.65625 L 0.125 -0.078125 L -1.515625 -8.390625 L -0.734375 -8.875 L 6.03125 -3.78125 L 5.125 -3.21875 Z M 0.40625 -3.6875 L 2.671875 -5.125 L -0.4375 -7.546875 Z M 0.40625 -3.6875 "/></g></g></g><g fill="#000000" fill-opacity="1"><g transform="translate(31.639915, 13.188783)"><g><path d="M 1.984375 -4.765625 L 2.75 -9.1875 L 3.875 -9.546875 L 2.78125 -3.984375 L 3.671875 -1.171875 L 2.6875 -0.859375 L 1.796875 -3.671875 L -2.328125 -7.578125 L -1.1875 -7.9375 Z M 1.984375 -4.765625 "/></g></g></g><g fill="#000000" fill-opacity="1"><g transform="translate(40.114172, 10.90732)"><g/></g></g><g fill="#000000" fill-opacity="1"><g transform="translate(44.944092, 10.352624)"><g><path d="M 2.234375 -2.90625 L 1.96875 0.171875 L 0.921875 0.078125 L 1.59375 -7.8125 L 4.5 -7.5625 C 5.363281 -7.488281 6.019531 -7.207031 6.46875 -6.71875 C 6.914062 -6.238281 7.109375 -5.640625 7.046875 -4.921875 C 6.984375 -4.148438 6.695312 -3.578125 6.1875 -3.203125 C 5.675781 -2.828125 4.972656 -2.675781 4.078125 -2.75 Z M 2.296875 -3.765625 L 4.15625 -3.609375 C 4.707031 -3.566406 5.144531 -3.664062 5.46875 -3.90625 C 5.800781 -4.144531 5.988281 -4.507812 6.03125 -5 C 6.070312 -5.476562 5.953125 -5.867188 5.671875 -6.171875 C 5.390625 -6.472656 4.992188 -6.648438 4.484375 -6.703125 L 2.5625 -6.859375 Z M 2.296875 -3.765625 "/></g></g></g><g fill="#000000" fill-opacity="1"><g transform="translate(53.823781, 11.362966)"><g><path d="M 4.671875 -1.75 L 2.921875 -2.359375 L 1.859375 0.65625 L 0.859375 0.296875 L 3.484375 -7.1875 L 5.953125 -6.3125 C 6.796875 -6.019531 7.375 -5.601562 7.6875 -5.0625 C 8.007812 -4.519531 8.039062 -3.878906 7.78125 -3.140625 C 7.613281 -2.679688 7.34375 -2.320312 6.96875 -2.0625 C 6.601562 -1.800781 6.164062 -1.664062 5.65625 -1.65625 L 6.296875 2.140625 L 6.28125 2.203125 L 5.234375 1.828125 Z M 3.203125 -3.171875 L 4.703125 -2.65625 C 5.191406 -2.476562 5.625 -2.46875 6 -2.625 C 6.382812 -2.78125 6.648438 -3.066406 6.796875 -3.484375 C 6.953125 -3.941406 6.9375 -4.34375 6.75 -4.6875 C 6.5625 -5.039062 6.207031 -5.3125 5.6875 -5.5 L 4.1875 -6.015625 Z M 3.203125 -3.171875 "/></g></g></g><g fill="#000000" fill-opacity="1"><g transform="translate(62.019508, 14.463108)"><g><path d="M 5.546875 1.234375 L 2.796875 -0.625 L 1.03125 0.6875 L 0.125 0.09375 L 7.0625 -4.8125 L 7.8125 -4.296875 L 5.921875 3.96875 L 5.015625 3.375 Z M 3.53125 -1.140625 L 5.765625 0.359375 L 6.703125 -3.46875 Z M 3.53125 -1.140625 "/></g></g></g><g fill="#000000" fill-opacity="1"><g transform="translate(69.475213, 19.804015)"><g><path d="M 9.53125 0.078125 L 7.84375 -1.828125 L 2.5625 2.875 L 1.875 2.09375 L 7.15625 -2.609375 L 5.453125 -4.5 L 6.09375 -5.0625 L 10.171875 -0.484375 Z M 9.53125 0.078125 "/></g></g></g><g fill="#000000" fill-opacity="1"><g transform="translate(75.011194, 26.335929)"><g><path d="M 4.25 3.765625 L 2.734375 0.8125 L 0.5625 1.09375 L 0.078125 0.140625 L 8.5 -0.8125 L 8.921875 0.015625 L 3.265625 6.328125 L 2.765625 5.375 Z M 3.640625 0.703125 L 4.875 3.09375 L 7.5625 0.203125 Z M 3.640625 0.703125 "/></g></g></g><g fill="#000000" fill-opacity="1"><g transform="translate(78.972106, 34.591977)"><g><path d="M 3.4375 1.25 L 0.421875 1.921875 L 0.203125 0.90625 L 7.9375 -0.8125 L 8.5625 2.03125 C 8.75 2.875 8.679688 3.582031 8.359375 4.15625 C 8.035156 4.738281 7.519531 5.109375 6.8125 5.265625 C 6.050781 5.429688 5.414062 5.320312 4.90625 4.9375 C 4.394531 4.5625 4.039062 3.9375 3.84375 3.0625 Z M 4.28125 1.0625 L 4.6875 2.890625 C 4.8125 3.429688 5.035156 3.820312 5.359375 4.0625 C 5.679688 4.300781 6.082031 4.367188 6.5625 4.265625 C 7.03125 4.160156 7.367188 3.925781 7.578125 3.5625 C 7.785156 3.207031 7.835938 2.78125 7.734375 2.28125 L 7.3125 0.390625 Z M 4.28125 1.0625 "/></g></g></g><g fill="#000000" fill-opacity="1"><g transform="translate(79.582541, 48.533107)"><g><path d="M 0.859375 5.625 L 1.578125 2.375 L -0.265625 1.203125 L -0.03125 0.15625 L 7.03125 4.828125 L 6.828125 5.734375 L -1.5625 6.953125 L -1.328125 5.90625 Z M 2.34375 2.875 L 1.75 5.5 L 5.671875 5 Z M 2.34375 2.875 "/></g></g></g><g fill="#000000" fill-opacity="1"><g transform="translate(77.309258, 57.404014)"><g><path d="M -0.421875 0.8125 L 6.609375 4.453125 L 5.421875 6.765625 C 5.023438 7.523438 4.570312 8.015625 4.0625 8.234375 C 3.550781 8.453125 2.984375 8.398438 2.359375 8.078125 C 2.023438 7.898438 1.78125 7.65625 1.625 7.34375 C 1.46875 7.039062 1.40625 6.691406 1.4375 6.296875 C 1.144531 6.609375 0.789062 6.800781 0.375 6.875 C -0.0390625 6.945312 -0.457031 6.875 -0.875 6.65625 C -1.507812 6.332031 -1.898438 5.867188 -2.046875 5.265625 C -2.191406 4.671875 -2.070312 4.003906 -1.6875 3.265625 Z M 2.390625 3.453125 L -0.140625 2.140625 L -0.921875 3.671875 C -1.148438 4.097656 -1.21875 4.492188 -1.125 4.859375 C -1.039062 5.222656 -0.796875 5.507812 -0.390625 5.71875 C 0.453125 6.15625 1.113281 5.914062 1.59375 5 Z M 3.125 3.84375 L 2.40625 5.25 C 2.195312 5.65625 2.132812 6.03125 2.21875 6.375 C 2.300781 6.71875 2.507812 6.976562 2.84375 7.15625 C 3.238281 7.351562 3.582031 7.382812 3.875 7.25 C 4.164062 7.113281 4.429688 6.820312 4.671875 6.375 L 5.375 5 Z M 3.125 3.84375 "/></g></g></g><g fill="#000000" fill-opacity="1"><g transform="translate(73.102319, 65.149583)"><g><path d="M -4.734375 5.15625 L -4.015625 4.390625 L -1.3125 6.859375 L 1.375 3.921875 L -1.328125 1.453125 L -0.625 0.6875 L 5.21875 6.03125 L 4.515625 6.796875 L 2 4.5 L -0.6875 7.4375 L 1.828125 9.734375 L 1.109375 10.5 Z M -4.734375 5.15625 "/></g></g></g><g fill="#000000" fill-opacity="1"><g transform="translate(66.273219, 72.170038)"><g><path d="M -3.390625 4.5625 L -0.578125 2.796875 L -1.046875 0.65625 L -0.125 0.078125 L 1.515625 8.390625 L 0.734375 8.875 L -6.03125 3.78125 L -5.125 3.21875 Z M -0.40625 3.6875 L -2.671875 5.125 L 0.4375 7.546875 Z M -0.40625 3.6875 "/></g></g></g><g fill="#000000" fill-opacity="1"><g transform="translate(58.360659, 76.804804)"><g><path d="M -1.984375 4.765625 L -2.75 9.1875 L -3.875 9.546875 L -2.78125 3.984375 L -3.671875 1.171875 L -2.6875 0.859375 L -1.796875 3.671875 L 2.328125 7.578125 L 1.1875 7.9375 Z M -1.984375 4.765625 "/></g></g></g><g fill="#000000" fill-opacity="1"><g transform="translate(49.886407, 79.086274)"><g/></g></g><g fill="#000000" fill-opacity="1"><g transform="translate(45.056483, 79.640969)"><g><path d="M -2.234375 2.90625 L -1.96875 -0.171875 L -0.921875 -0.078125 L -1.59375 7.8125 L -4.5 7.5625 C -5.363281 7.488281 -6.019531 7.207031 -6.46875 6.71875 C -6.914062 6.238281 -7.109375 5.640625 -7.046875 4.921875 C -6.984375 4.148438 -6.695312 3.578125 -6.1875 3.203125 C -5.675781 2.828125 -4.972656 2.675781 -4.078125 2.75 Z M -2.296875 3.765625 L -4.15625 3.609375 C -4.707031 3.566406 -5.144531 3.664062 -5.46875 3.90625 C -5.800781 4.144531 -5.988281 4.507812 -6.03125 5 C -6.070312 5.476562 -5.953125 5.867188 -5.671875 6.171875 C -5.390625 6.472656 -4.992188 6.648438 -4.484375 6.703125 L -2.5625 6.859375 Z M -2.296875 3.765625 "/></g></g></g><g fill="#000000" fill-opacity="1"><g transform="translate(36.176795, 78.630629)"><g><path d="M -4.671875 1.75 L -2.921875 2.359375 L -1.859375 -0.65625 L -0.859375 -0.296875 L -3.484375 7.1875 L -5.953125 6.3125 C -6.796875 6.019531 -7.375 5.601562 -7.6875 5.0625 C -8.007812 4.519531 -8.039062 3.878906 -7.78125 3.140625 C -7.613281 2.679688 -7.34375 2.320312 -6.96875 2.0625 C -6.601562 1.800781 -6.164062 1.664062 -5.65625 1.65625 L -6.296875 -2.140625 L -6.28125 -2.203125 L -5.234375 -1.828125 Z M -3.203125 3.171875 L -4.703125 2.65625 C -5.191406 2.476562 -5.625 2.46875 -6 2.625 C -6.382812 2.78125 -6.648438 3.066406 -6.796875 3.484375 C -6.953125 3.941406 -6.9375 4.34375 -6.75 4.6875 C -6.5625 5.039062 -6.207031 5.3125 -5.6875 5.5 L -4.1875 6.015625 Z M -3.203125 3.171875 "/></g></g></g><g fill="#000000" fill-opacity="1"><g transform="translate(27.981061, 75.530485)"><g><path d="M -5.546875 -1.234375 L -2.796875 0.625 L -1.03125 -0.6875 L -0.125 -0.09375 L -7.0625 4.8125 L -7.8125 4.296875 L -5.921875 -3.96875 L -5.015625 -3.375 Z M -3.53125 1.140625 L -5.765625 -0.359375 L -6.703125 3.46875 Z M -3.53125 1.140625 "/></g></g></g><g fill="#000000" fill-opacity="1"><g transform="translate(20.525363, 70.18958)"><g><path d="M -9.53125 -0.078125 L -7.84375 1.828125 L -2.5625 -2.875 L -1.875 -2.09375 L -7.15625 2.609375 L -5.453125 4.5 L -6.09375 5.0625 L -10.171875 0.484375 Z M -9.53125 -0.078125 "/></g></g></g><g fill="#000000" fill-opacity="1"><g transform="translate(14.989385, 63.657663)"><g><path d="M -4.25 -3.765625 L -2.734375 -0.8125 L -0.5625 -1.09375 L -0.078125 -0.140625 L -8.5 0.8125 L -8.921875 -0.015625 L -3.265625 -6.328125 L -2.765625 -5.375 Z M -3.640625 -0.703125 L -4.875 -3.09375 L -7.5625 -0.203125 Z M -3.640625 -0.703125 "/></g></g></g><g fill="#000000" fill-opacity="1"><g transform="translate(11.028473, 55.401614)"><g><path d="M -3.4375 -1.25 L -0.421875 -1.921875 L -0.203125 -0.90625 L -7.9375 0.8125 L -8.5625 -2.03125 C -8.75 -2.875 -8.679688 -3.582031 -8.359375 -4.15625 C -8.035156 -4.738281 -7.519531 -5.109375 -6.8125 -5.265625 C -6.050781 -5.429688 -5.414062 -5.320312 -4.90625 -4.9375 C -4.394531 -4.5625 -4.039062 -3.9375 -3.84375 -3.0625 Z M -4.28125 -1.0625 L -4.6875 -2.890625 C -4.8125 -3.429688 -5.035156 -3.820312 -5.359375 -4.0625 C -5.679688 -4.300781 -6.082031 -4.367188 -6.5625 -4.265625 C -7.03125 -4.160156 -7.367188 -3.925781 -7.578125 -3.5625 C -7.785156 -3.207031 -7.835938 -2.78125 -7.734375 -2.28125 L -7.3125 -0.390625 Z M -4.28125 -1.0625 "/></g></g></g></svg>