<svg version="1.1" xmlns="http://www.w3.org/2000/svg" xmlns:xlink="http://www.w3.org/1999/xlink" width="79.99899" height="80.001" viewBox="694.99135,362.50453,79.99899,80.001"><defs><clipPath id="clip-1"><rect x="2342.64114" y="1359.375" transform="scale(0.29667,0.26667)" width="269.65649" height="300" id="clip-1" fill="none"/></clipPath></defs><g fill="none" fill-rule="nonzero" stroke="none" stroke-width="1" stroke-linecap="butt" stroke-linejoin="miter" stroke-miterlimit="10" stroke-dasharray="" stroke-dashoffset="0" font-family="none" font-weight="none" font-size="none" text-anchor="none" style="mix-blend-mode: normal"><g><g clip-path="url(#clip-1)" id="Group 1"><g id="Group 1"><path d="M738.3843,362.5c4.81695,2.17886 9.54246,4.5238 14.19919,6.96792c2.48376,1.29342 4.96751,2.58685 7.52654,3.91945c12.61958,6.70241 12.61958,6.70241 13.88738,8.98154c0.35007,6.52669 0.55586,13.05982 0.69077,19.59296c0.1029,3.59141 0.20579,7.18282 0.31181,10.88307c-1.00258,9.26181 -1.00258,9.26181 -5.14241,13.39254c-1.87588,0.82244 -3.75176,1.64487 -5.68448,2.49223c-2.09275,1.16963 -4.1855,2.33926 -6.34166,3.54433c-3.3196,1.72883 -3.3196,1.72883 -6.70624,3.49258c-2.2194,1.16963 -4.43878,2.33926 -6.72543,3.54433c-8.12484,3.59911 -8.12484,3.59911 -13.3837,2.66471c-3.40589,-1.37117 -3.40589,-1.37117 -6.60071,-3.17351c-1.07328,-0.58908 -2.14657,-1.17816 -3.25239,-1.7851c-0.801,-0.54924 -1.60201,-1.09847 -2.42729,-1.66436c0,-0.72853 0,-1.45705 0,-2.20766c3.2236,-1.3108 3.2236,-1.3108 7.36823,-2.20766c2.4947,1.0315 4.95555,2.13287 7.36823,3.31149c6.75681,-1.51835 11.95331,-4.63826 17.96006,-7.79579c12.47294,-6.55398 12.47294,-6.55398 15.19698,-6.55398c0,-11.65643 0,-23.31286 0,-35.32252c-3.0394,-1.09279 -3.0394,-1.09279 -6.14019,-2.20766c-5.98356,-3.17342 -11.91658,-6.41544 -17.84493,-9.67144c-5.41783,-3.0711 -5.41783,-3.0711 -11.62799,-1.36685c-4.41966,2.15816 -8.78974,4.39913 -13.12466,6.69196c-12.41338,6.55398 -12.41338,6.55398 -15.12022,6.55398c0,11.65643 0,23.31286 0,35.32252c6.20893,2.46039 6.20893,2.46039 13.50842,3.31149c0.07441,-2.53704 0.1488,-5.07408 0.22545,-7.68799c0.1029,-3.26841 0.20579,-6.53683 0.31181,-9.90428c0.09973,-3.26557 0.19946,-6.53113 0.30221,-9.89565c0.38856,-7.8346 0.38856,-7.8346 1.6166,-8.93843c2.02626,0 4.05253,0 6.14019,0c0.16512,6.53032 0.28457,13.06157 0.38376,19.59296c0.07124,3.63694 0.14248,7.27389 0.21587,11.02105c-0.19787,3.01086 -0.39575,6.02173 -0.59963,9.12383c-6.14019,4.41531 -6.14019,4.41531 -11.35936,4.55329c-7.15403,-1.523 -12.81323,-4.20437 -18.11357,-8.96861c-0.18887,-6.57543 -0.27274,-13.15339 -0.30701,-19.73094c-0.03166,-3.63979 -0.06332,-7.27957 -0.09594,-11.02967c0.40295,-8.97723 0.40295,-8.97723 4.08706,-12.28871c5.19949,-2.89529 10.45265,-5.71307 15.73424,-8.48568c4.26703,-2.26029 4.26703,-2.26029 8.62025,-4.56623c7.5745,-3.50552 7.5745,-3.50552 14.94274,-3.50552z" id="Path 1" fill="#20a365"/><path d="M756.80488,389.26785c2.4499,3.02789 3.33223,4.86462 3.68411,8.55467c-3.3771,0.27596 -3.3771,0.27596 -7.36823,0c-0.75985,-0.72853 -1.5197,-1.45705 -2.30257,-2.20766c-2.64787,-2.71294 -2.64787,-2.71294 -7.82874,-2.48361c-1.5197,0.09107 -3.0394,0.18213 -4.60514,0.27596c-0.40525,1.09279 -0.81051,2.18558 -1.22804,3.31149c1.37565,0.29312 2.75128,0.58623 4.16861,0.88824c1.79039,0.38987 3.58079,0.77974 5.42544,1.18144c1.7809,0.38419 3.56179,0.76837 5.39665,1.1642c4.65791,1.18144 4.65791,1.18144 8.34203,3.3891c1.14569,3.56471 1.39763,5.96751 0.46051,9.58951c-2.1668,3.27558 -4.01529,4.20656 -7.82874,5.86409c-4.14463,0.43981 -4.14463,0.43981 -8.59627,0.41394c-1.46904,0.00853 -2.93808,0.01708 -4.45164,0.02587c-4.45938,-0.47321 -6.73655,-1.32509 -10.28482,-3.7513c-2.45608,-3.31149 -2.45608,-3.31149 -2.45608,-8.83063c2.43152,0 4.86303,0 7.36823,0c0.81051,1.45705 1.62101,2.91411 2.45608,4.41531c3.96863,1.78361 7.91992,1.22631 12.28038,1.10383c0.81051,-0.36426 1.62101,-0.72853 2.45608,-1.10383c0,-1.09279 0,-2.18558 0,-3.31149c-1.27275,-0.18783 -2.54549,-0.37564 -3.8568,-0.56916c-1.66534,-0.26751 -3.33067,-0.53502 -5.04648,-0.81063c-1.65267,-0.25612 -3.30534,-0.51224 -5.00809,-0.77612c-4.70058,-1.20462 -6.58363,-2.05 -9.42136,-5.57089c-0.69077,-4.41531 -0.69077,-4.41531 0,-8.83063c2.97786,-3.07029 5.19728,-4.1649 9.5173,-5.31218c7.09897,-0.36813 12.88543,-0.55796 18.72759,3.38047z" id="Path 1" fill="#20a364"/></g></g></g></g></svg>