<svg version="1.1" xmlns="http://www.w3.org/2000/svg" xmlns:xlink="http://www.w3.org/1999/xlink" width="80.00142" height="80.00556" viewBox="694.99857,364.5,80.00142,80.00556"><defs><clipPath id="clip-1"><rect x="1312.87864" y="1366.875" transform="scale(0.52937,0.26667)" width="151.12272" height="300" id="clip-1" fill="none"/></clipPath></defs><g fill="none" fill-rule="nonzero" stroke="none" stroke-width="1" stroke-linecap="butt" stroke-linejoin="miter" stroke-miterlimit="10" stroke-dasharray="" stroke-dashoffset="0" font-family="none" font-weight="none" font-size="none" text-anchor="none" style="mix-blend-mode: normal"><g><g clip-path="url(#clip-1)" id="Group 1"><g id="Group 1"><path d="M735.94384,364.58815c3.88053,-0.16566 3.88053,-0.16566 5.89241,0.61061c1.88963,1.26918 1.74507,2.46846 1.64988,4.00291c-0.17778,0.35823 -0.35556,0.71645 -0.53874,1.08553c0.55939,0.0976 0.55939,0.0976 1.13008,0.19718c6.23999,1.37918 11.61524,4.05637 16.64816,6.31603c0.60765,0.27252 1.21531,0.54503 1.84138,0.82581c11.71756,5.34904 11.71756,5.34904 12.43298,7.62206c-0.3828,1.50469 -1.59989,2.6604 -2.92726,4.01881c-0.80211,0.83382 -0.80211,0.83382 -1.62041,1.68449c-1.37862,1.33121 -2.87009,2.54382 -4.5077,3.79407c-2.53403,2.19992 -2.04381,3.95326 -1.32369,6.41038c1.97944,6.80781 -0.99289,13.20459 -8.8323,18.81451c-4.14935,2.70692 -9.34202,4.33135 -15.53492,5.67891c-0.35556,0 -0.71113,0 -1.07747,0c0.41529,0.29141 0.83058,0.58282 1.25845,0.88306c0.54029,0.38586 1.08058,0.77173 1.63725,1.16928c0.53751,0.38097 1.07503,0.76193 1.62883,1.15444c1.63078,1.32105 2.80321,2.30574 2.10864,3.86827c-0.23334,0.27357 -0.46668,0.54714 -0.70709,0.82899c-0.37814,0.45181 -0.37814,0.45181 -0.76391,0.91274c-0.28125,0.3145 -0.56252,0.629 -0.85229,0.95302c-0.29792,0.33409 -0.59585,0.66818 -0.9028,1.01239c-0.76358,0.84182 -1.5396,1.68001 -2.32961,2.5156c0.38334,-0.04373 0.76668,-0.08746 1.16165,-0.13251c1.52905,-0.1386 2.94287,-0.18427 4.49507,-0.18976c0.49445,-0.00385 0.98891,-0.0077 1.49836,-0.01166c2.62842,0.11224 3.9073,0.47885 5.77457,1.41946c0.29886,0.98933 0.20028,1.46604 -0.8544,2.32054c-3.03268,1.54994 -8.53508,1.80071 -12.71498,1.90286c-2.59266,-0.15265 -2.59266,-0.15265 -4.04051,-0.67846c-1.01914,-1.1979 -0.95124,-1.96331 -0.70709,-3.27356c1.06796,-1.25254 2.23459,-2.48428 3.46811,-3.6976c2.71442,-2.65484 2.71442,-2.65484 4.07418,-5.52944c-0.77364,-0.81459 -0.77364,-0.81459 -1.98659,-1.52653c-0.37987,-0.24418 -0.75974,-0.48836 -1.15112,-0.73994c-0.38682,-0.23719 -0.77363,-0.47437 -1.17217,-0.71874c-0.45522,-0.38936 -0.45522,-0.38936 -0.91963,-0.78659c-1.23241,-0.70196 -1.23241,-0.70196 -3.48284,-0.53747c-0.85835,0.07871 -1.71671,0.15742 -2.60108,0.23852c-1.66101,0.09649 -3.32211,0.19261 -4.9833,0.28834c-0.82502,0.04793 -1.65004,0.09585 -2.50006,0.14523c-2.21387,0.10919 -2.21387,0.10919 -4.90754,0.10919c-0.09792,0.18716 -0.19584,0.37432 -0.29672,0.56715c-0.66764,1.25731 -1.35522,2.48799 -2.26227,3.70714c-0.74142,1.26985 -0.78324,1.7827 -0.13468,3.05306c1.54322,1.25839 1.54322,1.25839 3.46811,2.5103c0.63266,0.42679 1.26531,0.85358 1.91714,1.29331c0.53404,0.35683 1.06809,0.71365 1.61831,1.0813c1.33814,1.01112 1.28242,1.51625 1.07747,2.71383c-1.0017,1.13534 -1.48594,1.32411 -3.77114,1.89969c-2.23063,0.06642 -4.46603,0.09526 -6.70051,0.10177c-1.19934,0.0077 -2.39868,0.01539 -3.63435,0.02332c-3.1335,-0.12509 -3.1335,-0.12509 -4.86966,-0.6403c-1.90591,-1.13522 -1.73225,-2.0893 -1.49625,-3.55555c1.38668,-0.73804 2.28164,-1.05057 4.28042,-1.22017c4.05102,0.0376 7.47986,0.32607 11.34289,0.94878c-0.48751,-0.32429 -0.48751,-0.32429 -0.98487,-0.65514c-0.43057,-0.28756 -0.86113,-0.57512 -1.30475,-0.8714c-0.42501,-0.28336 -0.85002,-0.56673 -1.28791,-0.85867c-0.41946,-0.28756 -0.83891,-0.57512 -1.27108,-0.8714c-0.39723,-0.27077 -0.79446,-0.54154 -1.20374,-0.82051c-1.53549,-1.30398 -1.65062,-2.07508 -0.99118,-3.55661c0.24653,-0.39706 0.49307,-0.79411 0.74707,-1.2032c0.36355,-0.59664 0.36355,-0.59664 0.73444,-1.20533c0.54175,-0.82354 1.15124,-1.63586 1.79087,-2.44139c-0.90975,-0.01644 -1.81949,-0.03288 -2.75681,-0.04982c-1.20142,-0.02274 -2.40284,-0.04548 -3.64066,-0.06891c-1.7813,-0.03306 -1.7813,-0.03306 -3.59858,-0.06678c-8.25141,-0.20405 -8.25141,-0.20405 -9.93713,-0.62863c0.20499,-2.14207 1.85475,-3.86701 3.53545,-5.81778c5.32862,-6.37271 9.8317,-13.0693 11.54913,-19.96365c0.12848,-0.36837 0.25695,-0.73674 0.38932,-1.11628c0.66401,-2.28221 0.66401,-2.28221 -0.96804,-4.35062c-1.53971,-0.75615 -3.15725,-1.43862 -4.80863,-2.13185c-1.27809,-0.72483 -2.46343,-1.47465 -3.6575,-2.23467c-0.82712,-0.52118 -1.67947,-1.03235 -2.55057,-1.53501c-0.44029,-0.25608 -0.88058,-0.51215 -1.33421,-0.77599c-0.60002,-0.34213 -0.60002,-0.34213 -1.21215,-0.69118c-1.16439,-0.90601 -1.43006,-1.55821 -1.48152,-2.63327c1.19856,-0.82843 2.32955,-1.46058 3.77114,-2.17107c0.48959,-0.25607 0.97919,-0.51215 1.48363,-0.77599c2.99638,-1.55073 6.08058,-2.97637 9.44259,-4.32199c1.54088,-0.63234 3.00088,-1.29606 4.4614,-1.97495c2.67109,-1.23891 5.44975,-2.38949 8.31672,-3.51102c-0.26668,-0.40301 -0.26668,-0.40301 -0.53874,-0.81415c-0.27363,-1.68851 -0.40596,-3.18741 1.6162,-4.61352c2.6402,-1.30042 4.80218,-1.85781 8.48507,-1.95057c1.75089,0.05089 1.75089,0.05089 2.82836,0.32227c0.35556,-0.35823 0.71113,-0.71645 1.07747,-1.08553zM739.71498,372.18689c-0.68891,-0.01679 -1.37782,-0.03358 -2.0876,-0.05089c-2.27593,-0.06379 -2.27593,-0.06379 -3.73747,0.71238c-0.3889,0.22949 -0.7778,0.45898 -1.17848,0.69542c-1.6162,0.27138 -1.6162,0.27138 -2.92305,0.18339c-2.8254,-0.17911 -4.55498,-0.11099 -6.9762,0.688c-1.96642,0.85775 -3.84598,1.75007 -5.72406,2.65659c-1.36332,0.59712 -2.73262,1.1908 -4.10785,1.78095c-3.53743,1.54695 -7.01777,3.11985 -10.43799,4.73225c-0.45418,0.2078 -0.90835,0.4156 -1.3763,0.62969c-1.34415,0.61814 -1.34415,0.61814 -2.93358,1.54137c1.49189,3.00612 8.61932,6.60102 13.46837,8.41289c0.21103,-1.98436 -0.43125,-3.79058 -1.21005,-5.7351c-0.7821,-2.02091 -0.7821,-2.02091 -0.94489,-2.94918c1.37233,-1.0035 2.42084,-1.31111 4.71393,-1.69615c12.44714,-1.1065 26.95591,-1.45125 37.84612,2.23891c0.38542,0.12979 0.77085,0.25957 1.16796,0.39329c4.95601,1.91708 7.63067,5.0329 9.068,8.01959c2.55254,-1.28582 3.80611,-2.57244 5.45469,-4.18948c0.56807,-0.55378 1.13614,-1.10756 1.72142,-1.67813c2.10432,-1.87547 2.10432,-1.87547 1.98238,-3.9022c-7.17084,-5.15096 -18.35017,-9.8923 -29.09167,-13.02641c-1.25179,-0.05018 -1.25179,-0.05018 -2.69367,0.54277zM736.48257,393.08342c-0.89483,0.53251 -0.89483,0.53251 -1.68355,1.20426c-1.54204,1.23475 -1.54204,1.23475 -2.0876,1.50957c-0.01146,0.88765 0.00543,1.7754 0.03367,2.66295c0.04549,7.10394 -2.84619,12.90584 -8.65343,19.31911c7.4432,-0.55139 13.52987,-2.25492 18.23491,-5.24639c4.87455,-3.54149 5.21993,-7.37801 3.88689,-11.56242c-0.21762,-0.90605 -0.21762,-0.90605 -1.11114,-1.64526c-0.68891,-0.02799 -1.37782,-0.05597 -2.0876,-0.08481c-2.22228,-0.18658 -2.22228,-0.18658 -3.83849,-1.27211c-0.64967,-0.98179 -0.71909,-1.86746 -0.84177,-2.90041c-0.04514,-0.37047 -0.09028,-0.74094 -0.13679,-1.12264c-0.03264,-0.28441 -0.06528,-0.56882 -0.09891,-0.86185c-0.53335,0 -1.06669,0 -1.6162,0z" id="CompoundPath 1" fill="#fb0000"/><path d="M735.94384,364.58815c3.88053,-0.16566 3.88053,-0.16566 5.89241,0.61061c1.88963,1.26918 1.74507,2.46846 1.64988,4.00291c-0.17778,0.35823 -0.35556,0.71645 -0.53874,1.08553c0.55939,0.0976 0.55939,0.0976 1.13008,0.19718c6.23999,1.37918 11.61524,4.05637 16.64816,6.31603c0.60765,0.27252 1.21531,0.54503 1.84138,0.82581c11.71756,5.34904 11.71756,5.34904 12.43298,7.62206c-0.3828,1.50469 -1.59989,2.6604 -2.92726,4.01881c-0.80211,0.83382 -0.80211,0.83382 -1.62041,1.68449c-1.37862,1.33121 -2.87009,2.54382 -4.5077,3.79407c-2.53403,2.19992 -2.04381,3.95326 -1.32369,6.41038c1.97944,6.80781 -0.99289,13.20459 -8.8323,18.81451c-4.14935,2.70692 -9.34202,4.33135 -15.53492,5.67891c-0.35556,0 -0.71113,0 -1.07747,0c0.41529,0.29141 0.83058,0.58282 1.25845,0.88306c0.54029,0.38586 1.08058,0.77173 1.63725,1.16928c0.53751,0.38097 1.07503,0.76193 1.62883,1.15444c1.63078,1.32105 2.80321,2.30574 2.10864,3.86827c-0.23334,0.27357 -0.46668,0.54714 -0.70709,0.82899c-0.37814,0.45181 -0.37814,0.45181 -0.76391,0.91274c-0.28125,0.3145 -0.56252,0.629 -0.85229,0.95302c-0.29792,0.33409 -0.59585,0.66818 -0.9028,1.01239c-0.76358,0.84182 -1.5396,1.68001 -2.32961,2.5156c0.38334,-0.04373 0.76668,-0.08746 1.16165,-0.13251c1.52905,-0.1386 2.94287,-0.18427 4.49507,-0.18976c0.49445,-0.00385 0.98891,-0.0077 1.49836,-0.01166c2.62842,0.11224 3.9073,0.47885 5.77457,1.41946c0.29886,0.98933 0.20028,1.46604 -0.8544,2.32054c-3.03268,1.54994 -8.53508,1.80071 -12.71498,1.90286c-2.59266,-0.15265 -2.59266,-0.15265 -4.04051,-0.67846c-1.01914,-1.1979 -0.95124,-1.96331 -0.70709,-3.27356c1.06796,-1.25254 2.23459,-2.48428 3.46811,-3.6976c2.71442,-2.65484 2.71442,-2.65484 4.07418,-5.52944c-0.77364,-0.81459 -0.77364,-0.81459 -1.98659,-1.52653c-0.37987,-0.24418 -0.75974,-0.48836 -1.15112,-0.73994c-0.38682,-0.23719 -0.77363,-0.47437 -1.17217,-0.71874c-0.45522,-0.38936 -0.45522,-0.38936 -0.91963,-0.78659c-1.23241,-0.70196 -1.23241,-0.70196 -3.48284,-0.53747c-0.85835,0.07871 -1.71671,0.15742 -2.60108,0.23852c-1.66101,0.09649 -3.32211,0.19261 -4.9833,0.28834c-0.82502,0.04793 -1.65004,0.09585 -2.50006,0.14523c-2.21387,0.10919 -2.21387,0.10919 -4.90754,0.10919c-0.09792,0.18716 -0.19584,0.37432 -0.29672,0.56715c-0.66764,1.25731 -1.35522,2.48799 -2.26227,3.70714c-0.74142,1.26985 -0.78324,1.7827 -0.13468,3.05306c1.54322,1.25839 1.54322,1.25839 3.46811,2.5103c0.63266,0.42679 1.26531,0.85358 1.91714,1.29331c0.53404,0.35683 1.06809,0.71365 1.61831,1.0813c1.33814,1.01112 1.28242,1.51625 1.07747,2.71383c-1.0017,1.13534 -1.48594,1.32411 -3.77114,1.89969c-2.23063,0.06642 -4.46603,0.09526 -6.70051,0.10177c-1.19934,0.0077 -2.39868,0.01539 -3.63435,0.02332c-3.1335,-0.12509 -3.1335,-0.12509 -4.86966,-0.6403c-1.90591,-1.13522 -1.73225,-2.0893 -1.49625,-3.55555c1.38668,-0.73804 2.28164,-1.05057 4.28042,-1.22017c4.05102,0.0376 7.47986,0.32607 11.34289,0.94878c-0.48751,-0.32429 -0.48751,-0.32429 -0.98487,-0.65514c-0.43057,-0.28756 -0.86113,-0.57512 -1.30475,-0.8714c-0.42501,-0.28336 -0.85002,-0.56673 -1.28791,-0.85867c-0.41946,-0.28756 -0.83891,-0.57512 -1.27108,-0.8714c-0.39723,-0.27077 -0.79446,-0.54154 -1.20374,-0.82051c-1.53549,-1.30398 -1.65062,-2.07508 -0.99118,-3.55661c0.24653,-0.39706 0.49307,-0.79411 0.74707,-1.2032c0.36355,-0.59664 0.36355,-0.59664 0.73444,-1.20533c0.54175,-0.82354 1.15124,-1.63586 1.79087,-2.44139c-0.90975,-0.01644 -1.81949,-0.03288 -2.75681,-0.04982c-1.20142,-0.02274 -2.40284,-0.04548 -3.64066,-0.06891c-1.7813,-0.03306 -1.7813,-0.03306 -3.59858,-0.06678c-8.25141,-0.20405 -8.25141,-0.20405 -9.93713,-0.62863c0.20499,-2.14207 1.85475,-3.86701 3.53545,-5.81778c5.32862,-6.37271 9.8317,-13.0693 11.54913,-19.96365c0.12848,-0.36837 0.25695,-0.73674 0.38932,-1.11628c0.66401,-2.28221 0.66401,-2.28221 -0.96804,-4.35062c-1.53971,-0.75615 -3.15725,-1.43862 -4.80863,-2.13185c-1.27809,-0.72483 -2.46343,-1.47465 -3.6575,-2.23467c-0.82712,-0.52118 -1.67947,-1.03235 -2.55057,-1.53501c-0.44029,-0.25608 -0.88058,-0.51215 -1.33421,-0.77599c-0.60002,-0.34213 -0.60002,-0.34213 -1.21215,-0.69118c-1.16439,-0.90601 -1.43006,-1.55821 -1.48152,-2.63327c1.19856,-0.82843 2.32955,-1.46058 3.77114,-2.17107c0.48959,-0.25607 0.97919,-0.51215 1.48363,-0.77599c2.99638,-1.55073 6.08058,-2.97637 9.44259,-4.32199c1.54088,-0.63234 3.00088,-1.29606 4.4614,-1.97495c2.67109,-1.23891 5.44975,-2.38949 8.31672,-3.51102c-0.26668,-0.40301 -0.26668,-0.40301 -0.53874,-0.81415c-0.27363,-1.68851 -0.40596,-3.18741 1.6162,-4.61352c2.6402,-1.30042 4.80218,-1.85781 8.48507,-1.95057c1.75089,0.05089 1.75089,0.05089 2.82836,0.32227c0.35556,-0.35823 0.71113,-0.71645 1.07747,-1.08553zM739.71498,372.18689c-0.68891,-0.01679 -1.37782,-0.03358 -2.0876,-0.05089c-2.27593,-0.06379 -2.27593,-0.06379 -3.73747,0.71238c-0.3889,0.22949 -0.7778,0.45898 -1.17848,0.69542c-1.6162,0.27138 -1.6162,0.27138 -2.92305,0.18339c-2.8254,-0.17911 -4.55498,-0.11099 -6.9762,0.688c-1.96642,0.85775 -3.84598,1.75007 -5.72406,2.65659c-1.36332,0.59712 -2.73262,1.1908 -4.10785,1.78095c-3.53743,1.54695 -7.01777,3.11985 -10.43799,4.73225c-0.45418,0.2078 -0.90835,0.4156 -1.3763,0.62969c-1.34415,0.61814 -1.34415,0.61814 -2.93358,1.54137c1.49189,3.00612 8.61932,6.60102 13.46837,8.41289c0.21103,-1.98436 -0.43125,-3.79058 -1.21005,-5.7351c-0.7821,-2.02091 -0.7821,-2.02091 -0.94489,-2.94918c1.37233,-1.0035 2.42084,-1.31111 4.71393,-1.69615c12.44714,-1.1065 26.95591,-1.45125 37.84612,2.23891c0.38542,0.12979 0.77085,0.25957 1.16796,0.39329c4.95601,1.91708 7.63067,5.0329 9.068,8.01959c2.55254,-1.28582 3.80611,-2.57244 5.45469,-4.18948c0.56807,-0.55378 1.13614,-1.10756 1.72142,-1.67813c2.10432,-1.87547 2.10432,-1.87547 1.98238,-3.9022c-7.17084,-5.15096 -18.35017,-9.8923 -29.09167,-13.02641c-1.25179,-0.05018 -1.25179,-0.05018 -2.69367,0.54277zM714.93318,384.39915c0.1882,0.26237 0.3764,0.52474 0.5703,0.79507c1.38602,1.99766 2.5714,3.86014 2.66211,5.98952c0.04062,0.47175 0.04062,0.47175 0.08207,0.95302c0.25577,5.34438 -1.5099,10.67542 -3.85321,15.87275c-0.16181,0.37572 -0.32362,0.75144 -0.49034,1.13854c-2.23664,4.72096 -5.86769,9.24368 -9.20689,13.78755c2.28111,1.14909 7.60722,0.62582 10.539,0.62757c1.73407,0.00455 3.46815,0.0091 5.25477,0.01378c9.67835,-0.1829 20.74422,-1.01832 29.45995,-3.35519c0.39932,-0.10705 0.79863,-0.2141 1.21005,-0.32439c5.79767,-1.72375 8.81905,-4.64113 10.64212,-7.81712c1.53788,-3.17689 1.85337,-6.23982 1.6162,-9.49842c-0.01667,-0.3173 -0.03333,-0.63459 -0.05051,-0.9615c-0.48929,-5.25613 -2.72575,-10.83938 -10.60423,-14.59005c-7.10567,-2.73018 -15.45484,-3.28909 -24.19466,-3.25872c-1.96985,0.00157 -1.96985,0.00157 -3.97948,0.00318c-3.33368,0.07293 -6.39936,0.27501 -9.65724,0.62439z" id="CompoundPath 1" fill="#050202"/><path d="M731.63396,385.75607c2.70624,0.6915 4.71641,1.28004 5.92608,2.71383c0.37038,0.76327 0.37038,0.76327 0.53874,1.35692c1.33337,0.13434 1.33337,0.13434 2.69367,0.27138c0.30001,-0.2071 0.60002,-0.4142 0.90912,-0.62757c1.92112,-1.12468 3.13003,-1.50527 6.09444,-1.64526c2.20614,0.10419 3.18356,0.19698 4.84861,0.91592c2.15361,1.45896 2.02605,3.14506 1.6162,4.8849c-0.49646,0.78465 -1.08912,1.53339 -1.7088,2.2951c-0.88426,1.36784 -0.03796,2.59812 0.63133,3.94672c0.76943,9.49929 0.76943,9.49929 -5.38735,13.02641c-0.53335,0.31345 -1.06669,0.6269 -1.6162,0.94984c-6.49034,3.1202 -16.02273,4.63863 -24.7818,5.02059c0.32904,-1.25875 1.34951,-2.20978 2.52532,-3.32445c4.93215,-4.88877 6.79016,-9.2808 6.70051,-14.7904c-0.00972,-0.77662 -0.01944,-1.55325 -0.02946,-2.35341c-0.01875,-0.88367 -0.01875,-0.88367 -0.03788,-1.78519c-0.80002,0.13434 -0.80002,0.13434 -1.6162,0.27138c-4.25409,0.15307 -4.25409,0.15307 -6.3638,-0.39011c-2.91977,-1.72295 -3.71416,-3.40157 -3.53545,-5.61849c0.59811,-2.29735 3.22589,-3.49858 6.66684,-4.84674c2.12969,-0.35761 3.68131,-0.36971 5.92608,-0.27138zM736.48257,393.08342c-0.89483,0.53251 -0.89483,0.53251 -1.68355,1.20426c-1.54204,1.23475 -1.54204,1.23475 -2.0876,1.50957c-0.01146,0.88765 0.00543,1.7754 0.03367,2.66295c0.04549,7.10394 -2.84619,12.90584 -8.65343,19.31911c7.4432,-0.55139 13.52987,-2.25492 18.23491,-5.24639c4.87455,-3.54149 5.21993,-7.37801 3.88689,-11.56242c-0.21762,-0.90605 -0.21762,-0.90605 -1.11114,-1.64526c-0.68891,-0.02799 -1.37782,-0.05597 -2.0876,-0.08481c-2.22228,-0.18658 -2.22228,-0.18658 -3.83849,-1.27211c-0.64967,-0.98179 -0.71909,-1.86746 -0.84177,-2.90041c-0.04514,-0.37047 -0.09028,-0.74094 -0.13679,-1.12264c-0.03264,-0.28441 -0.06528,-0.56882 -0.09891,-0.86185c-0.53335,0 -1.06669,0 -1.6162,0z" id="CompoundPath 1" fill="#0d0202"/><path d="M712.77825,384.67053c0.53335,0.08956 1.06669,0.17911 1.6162,0.27138c0.61029,0.73146 0.61029,0.73146 1.14481,1.66222c0.17917,0.30295 0.35835,0.60591 0.54294,0.91804c5.58033,11.32016 -3.56256,25.7137 -13.00118,35.9562c-1.6609,0.73887 -3.01636,1.3286 -4.84861,1.89969c-0.17778,-0.17911 -0.35556,-0.35823 -0.53874,-0.54277c0.85656,-1.12203 1.76452,-2.23413 2.69367,-3.34141c5.76051,-7.02989 11.40873,-14.69191 12.18888,-22.35522c0.04028,-0.37607 0.08055,-0.75213 0.12206,-1.1396c0.02639,-0.27881 0.05278,-0.55763 0.07997,-0.84489c1.06669,0.08956 2.13339,0.17911 3.23241,0.27138c-0.81999,-0.71347 -1.53198,-1.31449 -2.69367,-1.89969c-0.33102,-1.54147 -0.51802,-3.08351 -0.72182,-4.63048c-0.33869,-1.53448 -1.0822,-2.85431 -1.97185,-4.32518c0.53874,-1.08553 0.53874,-1.08553 2.15494,-1.89969z" id="Path 1" fill="#f10000"/><path d="M751.02841,420.49316c0.53335,0.13434 0.53335,0.13434 1.07747,0.27138c-3.92381,1.97659 -8.26921,3.33746 -13.46837,4.34214c-0.71113,-0.08956 -1.42226,-0.17911 -2.15494,-0.27138c-0.26668,-0.26867 -0.26668,-0.26867 -0.53874,-0.54277c-0.53335,0 -1.06669,0 -1.6162,0c0.26668,0.67167 0.26668,0.67167 0.53874,1.35692c-5.07433,0.81332 -9.78415,0.90564 -15.08457,0.81415c0,-0.53734 0,-1.07468 0,-1.6283c-0.71113,0 -1.42226,0 -2.15494,0c-0.07778,0.26307 -0.15556,0.52614 -0.2357,0.79719c-0.30304,0.83111 -0.30304,0.83111 -0.84177,1.1025c-5.98341,0.0849 -12.47386,0.15498 -18.31698,-0.54277c3.30577,-1.72694 4.61247,-2.16488 9.70564,-2.29828c1.99728,-0.0028 3.99455,-0.00559 6.05235,-0.00848c12.94554,-0.09749 25.29326,-0.43413 37.03801,-3.39229z" id="Path 1" fill="#ea0000"/><path d="M716.01065,385.75607c6.65286,5.02699 2.10928,14.29343 0.06734,19.64138c-0.37163,0.87178 -0.75278,1.74255 -1.14481,2.61207c-0.16181,0.37572 -0.32362,0.75144 -0.49034,1.13854c-2.23664,4.72096 -5.86769,9.24368 -9.20689,13.78755c1.3598,0.68499 8.48683,0.3357 9.96659,0.33923c2.6084,0.01049 2.6084,0.01049 5.2695,0.0212c9.92024,-0.16872 20.47963,-1.11876 29.47889,-3.34565c0.71113,-0.08956 1.42226,-0.17911 2.15494,-0.27138c0.17778,0.35823 0.35556,0.71645 0.53874,1.08553c-0.38195,0.03149 -0.76391,0.06297 -1.15744,0.09541c-1.64069,0.18794 -3.03025,0.47631 -4.56662,0.82051c-12.34374,2.61655 -25.72748,2.44102 -38.90675,2.47531c-4.8639,-0.10644 -4.8639,-0.10644 -7.62646,1.22229c-0.17778,-0.26867 -0.35556,-0.53734 -0.53874,-0.81415c0.40349,-0.13224 0.80697,-0.26447 1.22267,-0.40071c8.18892,-3.81233 11.48284,-13.71161 13.32316,-19.1389c0.19861,-0.57302 0.39723,-1.14605 0.60187,-1.73643c1.71654,-5.42074 2.53615,-10.85396 0.65869,-16.29361c-0.18308,-0.69542 -0.18308,-0.69542 0.35565,-1.23819z" id="Path 1" fill="#220000"/><path d="M733.7889,366.21645c1.57219,0.79198 1.23939,1.40814 1.24582,2.5103c0.00903,0.35403 0.01806,0.70806 0.02736,1.07281c-0.25532,1.34426 -0.964,2.26927 -2.95673,3.18452c-2.28527,0.42544 -4.03928,0.25455 -6.39748,0.01696c-2.0128,-1.01393 -2.11846,-1.3747 -2.32329,-2.79864c0.1834,-1.38578 0.49386,-1.88433 2.32329,-2.90041c2.73374,-1.00634 4.71138,-1.25815 8.08102,-1.08553z" id="Path 1" fill="#f9f9f9"/><path d="M733.14915,386.89249c1.36335,0.56905 2.38296,1.09379 3.33342,1.8488c-0.17778,0.35823 -0.35556,0.71645 -0.53874,1.08553c0,-0.17911 0,-0.35823 0,-0.54277c-3.69655,0.08594 -5.79719,0.31797 -8.61975,1.6283c-2.29775,1.72137 -2.41759,3.15696 -2.15494,5.15629c-2.15494,-0.54277 -2.15494,-0.54277 -3.77114,-1.6283c-0.86878,-1.75056 -1.34219,-3.65873 0.08838,-5.35876c2.7993,-2.20197 6.38928,-3.31072 11.66277,-2.18909z" id="Path 1" fill="#f8f8f8"/><path d="M749.95094,397.69694c3.01598,3.03856 3.25988,7.45981 1.58253,10.71965c-2.274,2.66054 -5.15502,4.58017 -9.66355,6.37751c-0.35556,-0.08956 -0.71113,-0.17911 -1.07747,-0.27138c0.85002,-0.51215 0.85002,-0.51215 1.71722,-1.03465c5.8517,-3.79082 6.13392,-8.08931 5.04432,-12.75714c-0.23879,-0.65348 -0.52907,-1.30216 -0.83546,-1.94845c1.06669,-0.35823 2.13339,-0.71645 3.23241,-1.08553z" id="Path 1" fill="#f50000"/><path d="M749.95094,388.74129c1.44976,0.59046 2.40024,1.06129 3.23241,1.89969c0.02167,0.63314 0.02327,1.26657 0,1.89969c-0.35556,-0.08956 -0.71113,-0.17911 -1.07747,-0.27138c-3.0818,-0.14927 -4.61617,0.09671 -7.00355,1.08553c-2.20667,1.26181 -2.76265,1.89035 -2.72735,3.56191c0.00729,0.44603 0.00729,0.44603 0.01473,0.90108c0.00626,0.22879 0.0125,0.45758 0.01894,0.6933c-0.53335,-0.08956 -1.06669,-0.17911 -1.6162,-0.27138c-1.81873,-1.83235 -1.58451,-3.98319 -0.72603,-5.96938c1.64714,-2.33964 4.63464,-3.99825 9.88452,-3.52905z" id="Path 1" fill="#f5f5f5"/><path d="M708.25372,439.92464c3.64154,0.01422 6.45989,0.28297 9.91188,0.92228c1.43165,0.10867 2.86802,0.20535 4.30988,0.27138c-0.13468,0.76327 -0.13468,0.76327 -0.53874,1.6283c-2.88908,1.09151 -4.76843,0.93175 -8.35039,0.93288c-1.10559,0.00525 -2.21117,0.01049 -3.35026,0.0159c-2.84519,-0.13463 -2.84519,-0.13463 -5.00013,-1.22017c-0.2357,-0.83111 -0.2357,-0.83111 0,-1.6283c1.6162,-0.81415 1.6162,-0.81415 3.01775,-0.92228z" id="Path 1" fill="#fafafa"/><path d="M745.60739,439.42216c0.54932,-0.007 1.09864,-0.01399 1.6646,-0.0212c1.81058,0.10067 2.81624,0.38184 4.29515,0.9032c-0.03367,0.76327 -0.03367,0.76327 -0.53874,1.6283c-4.02804,1.18364 -8.86652,1.53523 -13.46837,1.35692c-1.23378,-0.93226 -1.17359,-1.35294 -1.07747,-2.44245c3.12596,-0.93875 5.48625,-1.39703 9.12482,-1.42476z" id="Path 1" fill="#f6f6f6"/><path d="M707.3909,417.23655c0.35556,0.08956 0.71113,0.17911 1.07747,0.27138c-0.34071,1.2823 -1.03337,2.41686 -1.91924,3.62975c-0.24515,0.33794 -0.49029,0.67587 -0.74287,1.02405c-0.1882,0.25537 -0.3764,0.51075 -0.5703,0.77387c1.3598,0.68499 8.48683,0.3357 9.96659,0.33923c2.6084,0.01049 2.6084,0.01049 5.2695,0.0212c9.92024,-0.16872 20.47963,-1.11876 29.47889,-3.34565c0.71113,-0.08956 1.42226,-0.17911 2.15494,-0.27138c0.26668,0.53734 0.26668,0.53734 0.53874,1.08553c-0.38195,0.03149 -0.76391,0.06297 -1.15744,0.09541c-1.64069,0.18794 -3.03025,0.47631 -4.56662,0.82051c-12.34374,2.61655 -25.72748,2.44102 -38.90675,2.47531c-4.8639,-0.10644 -4.8639,-0.10644 -7.62646,1.22229c-0.17778,-0.26867 -0.35556,-0.53734 -0.53874,-0.81415c0.59585,-0.18418 0.59585,-0.18418 1.20374,-0.37209c2.09922,-1.00519 2.75861,-2.08686 3.77956,-3.44424c0.36945,-0.48451 0.73891,-0.96903 1.11956,-1.46823c0.49689,-0.67782 0.98585,-1.35732 1.43943,-2.0428z" id="Path 1" fill="#100000"/><path d="M712.77825,384.67053c0.53335,0.08956 1.06669,0.17911 1.6162,0.27138c0.61029,0.73146 0.61029,0.73146 1.14481,1.66222c0.17917,0.30295 0.35835,0.60591 0.54294,0.91804c0.90136,1.82849 1.07918,3.56007 1.07326,5.44251c0.00139,0.44253 0.00278,0.88507 0.00421,1.34102c-0.05789,0.98717 -0.21929,1.88398 -0.61029,2.84847c-3.97007,-1.99989 -3.53143,-3.36594 -3.93529,-6.24924c-0.35465,-1.53461 -1.10206,-2.86245 -1.99079,-4.33472c0.53874,-1.08553 0.53874,-1.08553 2.15494,-1.89969z" id="Path 1" fill="#f90000"/><path d="M709.54584,424.02114c1.33546,0.03201 1.33546,0.03201 2.69788,0.06466c2.51348,0.06321 5.02579,0.13258 7.53808,0.20672c-0.53335,0.17911 -1.06669,0.35823 -1.6162,0.54277c-0.57718,0.62457 -1.12051,1.2576 -1.6162,1.89969c-12.98892,0.09347 -12.98892,0.09347 -18.31698,-0.54277c0.70513,-0.36836 1.42686,-0.72868 2.15494,-1.08553c0.35556,-0.2015 0.71113,-0.40301 1.07747,-0.61061c2.60797,-0.76635 5.1281,-0.55687 8.08102,-0.47492z" id="Path 1" fill="#f60000"/><path d="M737.02131,365.4023c2.69367,0 2.69367,0 3.9395,0.50885c1.26318,1.17837 1.25932,2.26475 0.90912,3.56191c-0.71996,0.92316 -1.31171,1.47491 -2.69367,2.17107c-0.88891,-0.08956 -1.77782,-0.17911 -2.69367,-0.27138c-0.01445,-0.94418 -0.02495,-1.88837 -0.03367,-2.83257c-0.00625,-0.52579 -0.0125,-1.05159 -0.01894,-1.59332c0.05261,-1.27317 0.05261,-1.27317 0.59135,-1.54455z" id="Path 1" fill="#f7f7f7"/><path d="M731.63396,385.75607c2.39063,0.61061 2.39063,0.61061 4.30988,1.35692c0.17778,0.35823 0.35556,0.71645 0.53874,1.08553c-2.15494,-0.54277 -2.15494,-0.54277 -3.33342,-0.98377c-2.21888,-0.54645 -3.92689,-0.49086 -6.3638,-0.37315c-2.86114,0.67985 -4.21802,1.51262 -5.38735,2.98522c-0.43439,1.94969 -0.37452,3.69203 1.6162,5.42767c1.3821,0.69622 2.41185,0.68944 4.30988,0.81415c-2.15494,0.54277 -2.15494,0.54277 -3.50177,0.54277c-2.29003,-0.46143 -3.08593,-1.44994 -4.08891,-2.53468c-1.1607,-1.70891 -0.84255,-3.46842 0.31777,-5.14887c2.9868,-2.21925 6.1179,-3.41118 11.5828,-3.17179z" id="Path 1" fill="#210e0e"/><path d="M751.02841,420.49316c0.35556,0.08956 0.71113,0.17911 1.07747,0.27138c-3.92381,1.97659 -8.26921,3.33746 -13.46837,4.34214c-2.63607,-0.33198 -3.23533,-0.83868 -4.84861,-1.89969c0.78891,-0.05597 1.57782,-0.11195 2.39063,-0.16962c5.11745,-0.46321 10.20369,-1.37423 14.84888,-2.54422z" id="Path 1" fill="#f00000"/><path d="M751.02841,419.67901c0.35556,0.08956 0.71113,0.17911 1.07747,0.27138c0,0.26867 0,0.53734 0,0.81415c-0.42223,0.06717 -0.84447,0.13434 -1.2795,0.20354c-1.52638,0.26514 -2.98994,0.55295 -4.47823,0.86503c-5.51147,1.11137 -10.98268,1.5765 -16.86913,1.91665c0,-0.17911 0,-0.35823 0,-0.54277c-0.71113,-0.08956 -1.42226,-0.17911 -2.15494,-0.27138c0.63266,-0.04303 1.26531,-0.08606 1.91714,-0.13039c7.628,-0.55685 14.94015,-1.29605 21.78719,-3.12621z" id="Path 1" fill="#250000"/><path d="M714.93318,405.29568c0.17778,0 0.35556,0 0.53874,0c0.4749,4.15802 -3.61265,8.6421 -6.46482,12.48364c-0.35556,-0.08956 -0.71113,-0.17911 -1.07747,-0.27138c0.32882,-1.62769 1.2543,-3.05486 2.32329,-4.59656c1.4717,-2.17233 2.72515,-4.33249 3.7501,-6.56833c0.39142,-0.77599 0.39142,-0.77599 0.93016,-1.04737z" id="Path 1" fill="#1b0000"/></g></g></g><rect x="1312.87864" y="1366.875" transform="scale(0.52937,0.26667)" width="151.12272" height="300" id="Shape 1" fill="none"/><g id="Group 1"><path d="M735.94384,364.58815c3.88053,-0.16566 3.88053,-0.16566 5.89241,0.61061c1.88963,1.26918 1.74507,2.46846 1.64988,4.00291c-0.17778,0.35823 -0.35556,0.71645 -0.53874,1.08553c0.55939,0.0976 0.55939,0.0976 1.13008,0.19718c6.23999,1.37918 11.61524,4.05637 16.64816,6.31603c0.60765,0.27252 1.21531,0.54503 1.84138,0.82581c11.71756,5.34904 11.71756,5.34904 12.43298,7.62206c-0.3828,1.50469 -1.59989,2.6604 -2.92726,4.01881c-0.80211,0.83382 -0.80211,0.83382 -1.62041,1.68449c-1.37862,1.33121 -2.87009,2.54382 -4.5077,3.79407c-2.53403,2.19992 -2.04381,3.95326 -1.32369,6.41038c1.97944,6.80781 -0.99289,13.20459 -8.8323,18.81451c-4.14935,2.70692 -9.34202,4.33135 -15.53492,5.67891c-0.35556,0 -0.71113,0 -1.07747,0c0.41529,0.29141 0.83058,0.58282 1.25845,0.88306c0.54029,0.38586 1.08058,0.77173 1.63725,1.16928c0.53751,0.38097 1.07503,0.76193 1.62883,1.15444c1.63078,1.32105 2.80321,2.30574 2.10864,3.86827c-0.23334,0.27357 -0.46668,0.54714 -0.70709,0.82899c-0.37814,0.45181 -0.37814,0.45181 -0.76391,0.91274c-0.28125,0.3145 -0.56252,0.629 -0.85229,0.95302c-0.29792,0.33409 -0.59585,0.66818 -0.9028,1.01239c-0.76358,0.84182 -1.5396,1.68001 -2.32961,2.5156c0.38334,-0.04373 0.76668,-0.08746 1.16165,-0.13251c1.52905,-0.1386 2.94287,-0.18427 4.49507,-0.18976c0.49445,-0.00385 0.98891,-0.0077 1.49836,-0.01166c2.62842,0.11224 3.9073,0.47885 5.77457,1.41946c0.29886,0.98933 0.20028,1.46604 -0.8544,2.32054c-3.03268,1.54994 -8.53508,1.80071 -12.71498,1.90286c-2.59266,-0.15265 -2.59266,-0.15265 -4.04051,-0.67846c-1.01914,-1.1979 -0.95124,-1.96331 -0.70709,-3.27356c1.06796,-1.25254 2.23459,-2.48428 3.46811,-3.6976c2.71442,-2.65484 2.71442,-2.65484 4.07418,-5.52944c-0.77364,-0.81459 -0.77364,-0.81459 -1.98659,-1.52653c-0.37987,-0.24418 -0.75974,-0.48836 -1.15112,-0.73994c-0.38682,-0.23719 -0.77363,-0.47437 -1.17217,-0.71874c-0.45522,-0.38936 -0.45522,-0.38936 -0.91963,-0.78659c-1.23241,-0.70196 -1.23241,-0.70196 -3.48284,-0.53747c-0.85835,0.07871 -1.71671,0.15742 -2.60108,0.23852c-1.66101,0.09649 -3.32211,0.19261 -4.9833,0.28834c-0.82502,0.04793 -1.65004,0.09585 -2.50006,0.14523c-2.21387,0.10919 -2.21387,0.10919 -4.90754,0.10919c-0.09792,0.18716 -0.19584,0.37432 -0.29672,0.56715c-0.66764,1.25731 -1.35522,2.48799 -2.26227,3.70714c-0.74142,1.26985 -0.78324,1.7827 -0.13468,3.05306c1.54322,1.25839 1.54322,1.25839 3.46811,2.5103c0.63266,0.42679 1.26531,0.85358 1.91714,1.29331c0.53404,0.35683 1.06809,0.71365 1.61831,1.0813c1.33814,1.01112 1.28242,1.51625 1.07747,2.71383c-1.0017,1.13534 -1.48594,1.32411 -3.77114,1.89969c-2.23063,0.06642 -4.46603,0.09526 -6.70051,0.10177c-1.19934,0.0077 -2.39868,0.01539 -3.63435,0.02332c-3.1335,-0.12509 -3.1335,-0.12509 -4.86966,-0.6403c-1.90591,-1.13522 -1.73225,-2.0893 -1.49625,-3.55555c1.38668,-0.73804 2.28164,-1.05057 4.28042,-1.22017c4.05102,0.0376 7.47986,0.32607 11.34289,0.94878c-0.48751,-0.32429 -0.48751,-0.32429 -0.98487,-0.65514c-0.43057,-0.28756 -0.86113,-0.57512 -1.30475,-0.8714c-0.42501,-0.28336 -0.85002,-0.56673 -1.28791,-0.85867c-0.41946,-0.28756 -0.83891,-0.57512 -1.27108,-0.8714c-0.39723,-0.27077 -0.79446,-0.54154 -1.20374,-0.82051c-1.53549,-1.30398 -1.65062,-2.07508 -0.99118,-3.55661c0.24653,-0.39706 0.49307,-0.79411 0.74707,-1.2032c0.36355,-0.59664 0.36355,-0.59664 0.73444,-1.20533c0.54175,-0.82354 1.15124,-1.63586 1.79087,-2.44139c-0.90975,-0.01644 -1.81949,-0.03288 -2.75681,-0.04982c-1.20142,-0.02274 -2.40284,-0.04548 -3.64066,-0.06891c-1.7813,-0.03306 -1.7813,-0.03306 -3.59858,-0.06678c-8.25141,-0.20405 -8.25141,-0.20405 -9.93713,-0.62863c0.20499,-2.14207 1.85475,-3.86701 3.53545,-5.81778c5.32862,-6.37271 9.8317,-13.0693 11.54913,-19.96365c0.12848,-0.36837 0.25695,-0.73674 0.38932,-1.11628c0.66401,-2.28221 0.66401,-2.28221 -0.96804,-4.35062c-1.53971,-0.75615 -3.15725,-1.43862 -4.80863,-2.13185c-1.27809,-0.72483 -2.46343,-1.47465 -3.6575,-2.23467c-0.82712,-0.52118 -1.67947,-1.03235 -2.55057,-1.53501c-0.44029,-0.25608 -0.88058,-0.51215 -1.33421,-0.77599c-0.60002,-0.34213 -0.60002,-0.34213 -1.21215,-0.69118c-1.16439,-0.90601 -1.43006,-1.55821 -1.48152,-2.63327c1.19856,-0.82843 2.32955,-1.46058 3.77114,-2.17107c0.48959,-0.25607 0.97919,-0.51215 1.48363,-0.77599c2.99638,-1.55073 6.08058,-2.97637 9.44259,-4.32199c1.54088,-0.63234 3.00088,-1.29606 4.4614,-1.97495c2.67109,-1.23891 5.44975,-2.38949 8.31672,-3.51102c-0.26668,-0.40301 -0.26668,-0.40301 -0.53874,-0.81415c-0.27363,-1.68851 -0.40596,-3.18741 1.6162,-4.61352c2.6402,-1.30042 4.80218,-1.85781 8.48507,-1.95057c1.75089,0.05089 1.75089,0.05089 2.82836,0.32227c0.35556,-0.35823 0.71113,-0.71645 1.07747,-1.08553zM739.71498,372.18689c-0.68891,-0.01679 -1.37782,-0.03358 -2.0876,-0.05089c-2.27593,-0.06379 -2.27593,-0.06379 -3.73747,0.71238c-0.3889,0.22949 -0.7778,0.45898 -1.17848,0.69542c-1.6162,0.27138 -1.6162,0.27138 -2.92305,0.18339c-2.8254,-0.17911 -4.55498,-0.11099 -6.9762,0.688c-1.96642,0.85775 -3.84598,1.75007 -5.72406,2.65659c-1.36332,0.59712 -2.73262,1.1908 -4.10785,1.78095c-3.53743,1.54695 -7.01777,3.11985 -10.43799,4.73225c-0.45418,0.2078 -0.90835,0.4156 -1.3763,0.62969c-1.34415,0.61814 -1.34415,0.61814 -2.93358,1.54137c1.49189,3.00612 8.61932,6.60102 13.46837,8.41289c0.21103,-1.98436 -0.43125,-3.79058 -1.21005,-5.7351c-0.7821,-2.02091 -0.7821,-2.02091 -0.94489,-2.94918c1.37233,-1.0035 2.42084,-1.31111 4.71393,-1.69615c12.44714,-1.1065 26.95591,-1.45125 37.84612,2.23891c0.38542,0.12979 0.77085,0.25957 1.16796,0.39329c4.95601,1.91708 7.63067,5.0329 9.068,8.01959c2.55254,-1.28582 3.80611,-2.57244 5.45469,-4.18948c0.56807,-0.55378 1.13614,-1.10756 1.72142,-1.67813c2.10432,-1.87547 2.10432,-1.87547 1.98238,-3.9022c-7.17084,-5.15096 -18.35017,-9.8923 -29.09167,-13.02641c-1.25179,-0.05018 -1.25179,-0.05018 -2.69367,0.54277zM736.48257,393.08342c-0.89483,0.53251 -0.89483,0.53251 -1.68355,1.20426c-1.54204,1.23475 -1.54204,1.23475 -2.0876,1.50957c-0.01146,0.88765 0.00543,1.7754 0.03367,2.66295c0.04549,7.10394 -2.84619,12.90584 -8.65343,19.31911c7.4432,-0.55139 13.52987,-2.25492 18.23491,-5.24639c4.87455,-3.54149 5.21993,-7.37801 3.88689,-11.56242c-0.21762,-0.90605 -0.21762,-0.90605 -1.11114,-1.64526c-0.68891,-0.02799 -1.37782,-0.05597 -2.0876,-0.08481c-2.22228,-0.18658 -2.22228,-0.18658 -3.83849,-1.27211c-0.64967,-0.98179 -0.71909,-1.86746 -0.84177,-2.90041c-0.04514,-0.37047 -0.09028,-0.74094 -0.13679,-1.12264c-0.03264,-0.28441 -0.06528,-0.56882 -0.09891,-0.86185c-0.53335,0 -1.06669,0 -1.6162,0z" id="CompoundPath 1" fill="#fb0000"/><path d="M735.94384,364.58815c3.88053,-0.16566 3.88053,-0.16566 5.89241,0.61061c1.88963,1.26918 1.74507,2.46846 1.64988,4.00291c-0.17778,0.35823 -0.35556,0.71645 -0.53874,1.08553c0.55939,0.0976 0.55939,0.0976 1.13008,0.19718c6.23999,1.37918 11.61524,4.05637 16.64816,6.31603c0.60765,0.27252 1.21531,0.54503 1.84138,0.82581c11.71756,5.34904 11.71756,5.34904 12.43298,7.62206c-0.3828,1.50469 -1.59989,2.6604 -2.92726,4.01881c-0.80211,0.83382 -0.80211,0.83382 -1.62041,1.68449c-1.37862,1.33121 -2.87009,2.54382 -4.5077,3.79407c-2.53403,2.19992 -2.04381,3.95326 -1.32369,6.41038c1.97944,6.80781 -0.99289,13.20459 -8.8323,18.81451c-4.14935,2.70692 -9.34202,4.33135 -15.53492,5.67891c-0.35556,0 -0.71113,0 -1.07747,0c0.41529,0.29141 0.83058,0.58282 1.25845,0.88306c0.54029,0.38586 1.08058,0.77173 1.63725,1.16928c0.53751,0.38097 1.07503,0.76193 1.62883,1.15444c1.63078,1.32105 2.80321,2.30574 2.10864,3.86827c-0.23334,0.27357 -0.46668,0.54714 -0.70709,0.82899c-0.37814,0.45181 -0.37814,0.45181 -0.76391,0.91274c-0.28125,0.3145 -0.56252,0.629 -0.85229,0.95302c-0.29792,0.33409 -0.59585,0.66818 -0.9028,1.01239c-0.76358,0.84182 -1.5396,1.68001 -2.32961,2.5156c0.38334,-0.04373 0.76668,-0.08746 1.16165,-0.13251c1.52905,-0.1386 2.94287,-0.18427 4.49507,-0.18976c0.49445,-0.00385 0.98891,-0.0077 1.49836,-0.01166c2.62842,0.11224 3.9073,0.47885 5.77457,1.41946c0.29886,0.98933 0.20028,1.46604 -0.8544,2.32054c-3.03268,1.54994 -8.53508,1.80071 -12.71498,1.90286c-2.59266,-0.15265 -2.59266,-0.15265 -4.04051,-0.67846c-1.01914,-1.1979 -0.95124,-1.96331 -0.70709,-3.27356c1.06796,-1.25254 2.23459,-2.48428 3.46811,-3.6976c2.71442,-2.65484 2.71442,-2.65484 4.07418,-5.52944c-0.77364,-0.81459 -0.77364,-0.81459 -1.98659,-1.52653c-0.37987,-0.24418 -0.75974,-0.48836 -1.15112,-0.73994c-0.38682,-0.23719 -0.77363,-0.47437 -1.17217,-0.71874c-0.45522,-0.38936 -0.45522,-0.38936 -0.91963,-0.78659c-1.23241,-0.70196 -1.23241,-0.70196 -3.48284,-0.53747c-0.85835,0.07871 -1.71671,0.15742 -2.60108,0.23852c-1.66101,0.09649 -3.32211,0.19261 -4.9833,0.28834c-0.82502,0.04793 -1.65004,0.09585 -2.50006,0.14523c-2.21387,0.10919 -2.21387,0.10919 -4.90754,0.10919c-0.09792,0.18716 -0.19584,0.37432 -0.29672,0.56715c-0.66764,1.25731 -1.35522,2.48799 -2.26227,3.70714c-0.74142,1.26985 -0.78324,1.7827 -0.13468,3.05306c1.54322,1.25839 1.54322,1.25839 3.46811,2.5103c0.63266,0.42679 1.26531,0.85358 1.91714,1.29331c0.53404,0.35683 1.06809,0.71365 1.61831,1.0813c1.33814,1.01112 1.28242,1.51625 1.07747,2.71383c-1.0017,1.13534 -1.48594,1.32411 -3.77114,1.89969c-2.23063,0.06642 -4.46603,0.09526 -6.70051,0.10177c-1.19934,0.0077 -2.39868,0.01539 -3.63435,0.02332c-3.1335,-0.12509 -3.1335,-0.12509 -4.86966,-0.6403c-1.90591,-1.13522 -1.73225,-2.0893 -1.49625,-3.55555c1.38668,-0.73804 2.28164,-1.05057 4.28042,-1.22017c4.05102,0.0376 7.47986,0.32607 11.34289,0.94878c-0.48751,-0.32429 -0.48751,-0.32429 -0.98487,-0.65514c-0.43057,-0.28756 -0.86113,-0.57512 -1.30475,-0.8714c-0.42501,-0.28336 -0.85002,-0.56673 -1.28791,-0.85867c-0.41946,-0.28756 -0.83891,-0.57512 -1.27108,-0.8714c-0.39723,-0.27077 -0.79446,-0.54154 -1.20374,-0.82051c-1.53549,-1.30398 -1.65062,-2.07508 -0.99118,-3.55661c0.24653,-0.39706 0.49307,-0.79411 0.74707,-1.2032c0.36355,-0.59664 0.36355,-0.59664 0.73444,-1.20533c0.54175,-0.82354 1.15124,-1.63586 1.79087,-2.44139c-0.90975,-0.01644 -1.81949,-0.03288 -2.75681,-0.04982c-1.20142,-0.02274 -2.40284,-0.04548 -3.64066,-0.06891c-1.7813,-0.03306 -1.7813,-0.03306 -3.59858,-0.06678c-8.25141,-0.20405 -8.25141,-0.20405 -9.93713,-0.62863c0.20499,-2.14207 1.85475,-3.86701 3.53545,-5.81778c5.32862,-6.37271 9.8317,-13.0693 11.54913,-19.96365c0.12848,-0.36837 0.25695,-0.73674 0.38932,-1.11628c0.66401,-2.28221 0.66401,-2.28221 -0.96804,-4.35062c-1.53971,-0.75615 -3.15725,-1.43862 -4.80863,-2.13185c-1.27809,-0.72483 -2.46343,-1.47465 -3.6575,-2.23467c-0.82712,-0.52118 -1.67947,-1.03235 -2.55057,-1.53501c-0.44029,-0.25608 -0.88058,-0.51215 -1.33421,-0.77599c-0.60002,-0.34213 -0.60002,-0.34213 -1.21215,-0.69118c-1.16439,-0.90601 -1.43006,-1.55821 -1.48152,-2.63327c1.19856,-0.82843 2.32955,-1.46058 3.77114,-2.17107c0.48959,-0.25607 0.97919,-0.51215 1.48363,-0.77599c2.99638,-1.55073 6.08058,-2.97637 9.44259,-4.32199c1.54088,-0.63234 3.00088,-1.29606 4.4614,-1.97495c2.67109,-1.23891 5.44975,-2.38949 8.31672,-3.51102c-0.26668,-0.40301 -0.26668,-0.40301 -0.53874,-0.81415c-0.27363,-1.68851 -0.40596,-3.18741 1.6162,-4.61352c2.6402,-1.30042 4.80218,-1.85781 8.48507,-1.95057c1.75089,0.05089 1.75089,0.05089 2.82836,0.32227c0.35556,-0.35823 0.71113,-0.71645 1.07747,-1.08553zM739.71498,372.18689c-0.68891,-0.01679 -1.37782,-0.03358 -2.0876,-0.05089c-2.27593,-0.06379 -2.27593,-0.06379 -3.73747,0.71238c-0.3889,0.22949 -0.7778,0.45898 -1.17848,0.69542c-1.6162,0.27138 -1.6162,0.27138 -2.92305,0.18339c-2.8254,-0.17911 -4.55498,-0.11099 -6.9762,0.688c-1.96642,0.85775 -3.84598,1.75007 -5.72406,2.65659c-1.36332,0.59712 -2.73262,1.1908 -4.10785,1.78095c-3.53743,1.54695 -7.01777,3.11985 -10.43799,4.73225c-0.45418,0.2078 -0.90835,0.4156 -1.3763,0.62969c-1.34415,0.61814 -1.34415,0.61814 -2.93358,1.54137c1.49189,3.00612 8.61932,6.60102 13.46837,8.41289c0.21103,-1.98436 -0.43125,-3.79058 -1.21005,-5.7351c-0.7821,-2.02091 -0.7821,-2.02091 -0.94489,-2.94918c1.37233,-1.0035 2.42084,-1.31111 4.71393,-1.69615c12.44714,-1.1065 26.95591,-1.45125 37.84612,2.23891c0.38542,0.12979 0.77085,0.25957 1.16796,0.39329c4.95601,1.91708 7.63067,5.0329 9.068,8.01959c2.55254,-1.28582 3.80611,-2.57244 5.45469,-4.18948c0.56807,-0.55378 1.13614,-1.10756 1.72142,-1.67813c2.10432,-1.87547 2.10432,-1.87547 1.98238,-3.9022c-7.17084,-5.15096 -18.35017,-9.8923 -29.09167,-13.02641c-1.25179,-0.05018 -1.25179,-0.05018 -2.69367,0.54277zM714.93318,384.39915c0.1882,0.26237 0.3764,0.52474 0.5703,0.79507c1.38602,1.99766 2.5714,3.86014 2.66211,5.98952c0.04062,0.47175 0.04062,0.47175 0.08207,0.95302c0.25577,5.34438 -1.5099,10.67542 -3.85321,15.87275c-0.16181,0.37572 -0.32362,0.75144 -0.49034,1.13854c-2.23664,4.72096 -5.86769,9.24368 -9.20689,13.78755c2.28111,1.14909 7.60722,0.62582 10.539,0.62757c1.73407,0.00455 3.46815,0.0091 5.25477,0.01378c9.67835,-0.1829 20.74422,-1.01832 29.45995,-3.35519c0.39932,-0.10705 0.79863,-0.2141 1.21005,-0.32439c5.79767,-1.72375 8.81905,-4.64113 10.64212,-7.81712c1.53788,-3.17689 1.85337,-6.23982 1.6162,-9.49842c-0.01667,-0.3173 -0.03333,-0.63459 -0.05051,-0.9615c-0.48929,-5.25613 -2.72575,-10.83938 -10.60423,-14.59005c-7.10567,-2.73018 -15.45484,-3.28909 -24.19466,-3.25872c-1.96985,0.00157 -1.96985,0.00157 -3.97948,0.00318c-3.33368,0.07293 -6.39936,0.27501 -9.65724,0.62439z" id="CompoundPath 1" fill="#050202"/><path d="M731.63396,385.75607c2.70624,0.6915 4.71641,1.28004 5.92608,2.71383c0.37038,0.76327 0.37038,0.76327 0.53874,1.35692c1.33337,0.13434 1.33337,0.13434 2.69367,0.27138c0.30001,-0.2071 0.60002,-0.4142 0.90912,-0.62757c1.92112,-1.12468 3.13003,-1.50527 6.09444,-1.64526c2.20614,0.10419 3.18356,0.19698 4.84861,0.91592c2.15361,1.45896 2.02605,3.14506 1.6162,4.8849c-0.49646,0.78465 -1.08912,1.53339 -1.7088,2.2951c-0.88426,1.36784 -0.03796,2.59812 0.63133,3.94672c0.76943,9.49929 0.76943,9.49929 -5.38735,13.02641c-0.53335,0.31345 -1.06669,0.6269 -1.6162,0.94984c-6.49034,3.1202 -16.02273,4.63863 -24.7818,5.02059c0.32904,-1.25875 1.34951,-2.20978 2.52532,-3.32445c4.93215,-4.88877 6.79016,-9.2808 6.70051,-14.7904c-0.00972,-0.77662 -0.01944,-1.55325 -0.02946,-2.35341c-0.01875,-0.88367 -0.01875,-0.88367 -0.03788,-1.78519c-0.80002,0.13434 -0.80002,0.13434 -1.6162,0.27138c-4.25409,0.15307 -4.25409,0.15307 -6.3638,-0.39011c-2.91977,-1.72295 -3.71416,-3.40157 -3.53545,-5.61849c0.59811,-2.29735 3.22589,-3.49858 6.66684,-4.84674c2.12969,-0.35761 3.68131,-0.36971 5.92608,-0.27138zM736.48257,393.08342c-0.89483,0.53251 -0.89483,0.53251 -1.68355,1.20426c-1.54204,1.23475 -1.54204,1.23475 -2.0876,1.50957c-0.01146,0.88765 0.00543,1.7754 0.03367,2.66295c0.04549,7.10394 -2.84619,12.90584 -8.65343,19.31911c7.4432,-0.55139 13.52987,-2.25492 18.23491,-5.24639c4.87455,-3.54149 5.21993,-7.37801 3.88689,-11.56242c-0.21762,-0.90605 -0.21762,-0.90605 -1.11114,-1.64526c-0.68891,-0.02799 -1.37782,-0.05597 -2.0876,-0.08481c-2.22228,-0.18658 -2.22228,-0.18658 -3.83849,-1.27211c-0.64967,-0.98179 -0.71909,-1.86746 -0.84177,-2.90041c-0.04514,-0.37047 -0.09028,-0.74094 -0.13679,-1.12264c-0.03264,-0.28441 -0.06528,-0.56882 -0.09891,-0.86185c-0.53335,0 -1.06669,0 -1.6162,0z" id="CompoundPath 1" fill="#0d0202"/><path d="M712.77825,384.67053c0.53335,0.08956 1.06669,0.17911 1.6162,0.27138c0.61029,0.73146 0.61029,0.73146 1.14481,1.66222c0.17917,0.30295 0.35835,0.60591 0.54294,0.91804c5.58033,11.32016 -3.56256,25.7137 -13.00118,35.9562c-1.6609,0.73887 -3.01636,1.3286 -4.84861,1.89969c-0.17778,-0.17911 -0.35556,-0.35823 -0.53874,-0.54277c0.85656,-1.12203 1.76452,-2.23413 2.69367,-3.34141c5.76051,-7.02989 11.40873,-14.69191 12.18888,-22.35522c0.04028,-0.37607 0.08055,-0.75213 0.12206,-1.1396c0.02639,-0.27881 0.05278,-0.55763 0.07997,-0.84489c1.06669,0.08956 2.13339,0.17911 3.23241,0.27138c-0.81999,-0.71347 -1.53198,-1.31449 -2.69367,-1.89969c-0.33102,-1.54147 -0.51802,-3.08351 -0.72182,-4.63048c-0.33869,-1.53448 -1.0822,-2.85431 -1.97185,-4.32518c0.53874,-1.08553 0.53874,-1.08553 2.15494,-1.89969z" id="Path 1" fill="#f10000"/><path d="M751.02841,420.49316c0.53335,0.13434 0.53335,0.13434 1.07747,0.27138c-3.92381,1.97659 -8.26921,3.33746 -13.46837,4.34214c-0.71113,-0.08956 -1.42226,-0.17911 -2.15494,-0.27138c-0.26668,-0.26867 -0.26668,-0.26867 -0.53874,-0.54277c-0.53335,0 -1.06669,0 -1.6162,0c0.26668,0.67167 0.26668,0.67167 0.53874,1.35692c-5.07433,0.81332 -9.78415,0.90564 -15.08457,0.81415c0,-0.53734 0,-1.07468 0,-1.6283c-0.71113,0 -1.42226,0 -2.15494,0c-0.07778,0.26307 -0.15556,0.52614 -0.2357,0.79719c-0.30304,0.83111 -0.30304,0.83111 -0.84177,1.1025c-5.98341,0.0849 -12.47386,0.15498 -18.31698,-0.54277c3.30577,-1.72694 4.61247,-2.16488 9.70564,-2.29828c1.99728,-0.0028 3.99455,-0.00559 6.05235,-0.00848c12.94554,-0.09749 25.29326,-0.43413 37.03801,-3.39229z" id="Path 1" fill="#ea0000"/><path d="M716.01065,385.75607c6.65286,5.02699 2.10928,14.29343 0.06734,19.64138c-0.37163,0.87178 -0.75278,1.74255 -1.14481,2.61207c-0.16181,0.37572 -0.32362,0.75144 -0.49034,1.13854c-2.23664,4.72096 -5.86769,9.24368 -9.20689,13.78755c1.3598,0.68499 8.48683,0.3357 9.96659,0.33923c2.6084,0.01049 2.6084,0.01049 5.2695,0.0212c9.92024,-0.16872 20.47963,-1.11876 29.47889,-3.34565c0.71113,-0.08956 1.42226,-0.17911 2.15494,-0.27138c0.17778,0.35823 0.35556,0.71645 0.53874,1.08553c-0.38195,0.03149 -0.76391,0.06297 -1.15744,0.09541c-1.64069,0.18794 -3.03025,0.47631 -4.56662,0.82051c-12.34374,2.61655 -25.72748,2.44102 -38.90675,2.47531c-4.8639,-0.10644 -4.8639,-0.10644 -7.62646,1.22229c-0.17778,-0.26867 -0.35556,-0.53734 -0.53874,-0.81415c0.40349,-0.13224 0.80697,-0.26447 1.22267,-0.40071c8.18892,-3.81233 11.48284,-13.71161 13.32316,-19.1389c0.19861,-0.57302 0.39723,-1.14605 0.60187,-1.73643c1.71654,-5.42074 2.53615,-10.85396 0.65869,-16.29361c-0.18308,-0.69542 -0.18308,-0.69542 0.35565,-1.23819z" id="Path 1" fill="#220000"/><path d="M733.7889,366.21645c1.57219,0.79198 1.23939,1.40814 1.24582,2.5103c0.00903,0.35403 0.01806,0.70806 0.02736,1.07281c-0.25532,1.34426 -0.964,2.26927 -2.95673,3.18452c-2.28527,0.42544 -4.03928,0.25455 -6.39748,0.01696c-2.0128,-1.01393 -2.11846,-1.3747 -2.32329,-2.79864c0.1834,-1.38578 0.49386,-1.88433 2.32329,-2.90041c2.73374,-1.00634 4.71138,-1.25815 8.08102,-1.08553z" id="Path 1" fill="#f9f9f9"/><path d="M733.14915,386.89249c1.36335,0.56905 2.38296,1.09379 3.33342,1.8488c-0.17778,0.35823 -0.35556,0.71645 -0.53874,1.08553c0,-0.17911 0,-0.35823 0,-0.54277c-3.69655,0.08594 -5.79719,0.31797 -8.61975,1.6283c-2.29775,1.72137 -2.41759,3.15696 -2.15494,5.15629c-2.15494,-0.54277 -2.15494,-0.54277 -3.77114,-1.6283c-0.86878,-1.75056 -1.34219,-3.65873 0.08838,-5.35876c2.7993,-2.20197 6.38928,-3.31072 11.66277,-2.18909z" id="Path 1" fill="#f8f8f8"/><path d="M749.95094,397.69694c3.01598,3.03856 3.25988,7.45981 1.58253,10.71965c-2.274,2.66054 -5.15502,4.58017 -9.66355,6.37751c-0.35556,-0.08956 -0.71113,-0.17911 -1.07747,-0.27138c0.85002,-0.51215 0.85002,-0.51215 1.71722,-1.03465c5.8517,-3.79082 6.13392,-8.08931 5.04432,-12.75714c-0.23879,-0.65348 -0.52907,-1.30216 -0.83546,-1.94845c1.06669,-0.35823 2.13339,-0.71645 3.23241,-1.08553z" id="Path 1" fill="#f50000"/><path d="M749.95094,388.74129c1.44976,0.59046 2.40024,1.06129 3.23241,1.89969c0.02167,0.63314 0.02327,1.26657 0,1.89969c-0.35556,-0.08956 -0.71113,-0.17911 -1.07747,-0.27138c-3.0818,-0.14927 -4.61617,0.09671 -7.00355,1.08553c-2.20667,1.26181 -2.76265,1.89035 -2.72735,3.56191c0.00729,0.44603 0.00729,0.44603 0.01473,0.90108c0.00626,0.22879 0.0125,0.45758 0.01894,0.6933c-0.53335,-0.08956 -1.06669,-0.17911 -1.6162,-0.27138c-1.81873,-1.83235 -1.58451,-3.98319 -0.72603,-5.96938c1.64714,-2.33964 4.63464,-3.99825 9.88452,-3.52905z" id="Path 1" fill="#f5f5f5"/><path d="M708.25372,439.92464c3.64154,0.01422 6.45989,0.28297 9.91188,0.92228c1.43165,0.10867 2.86802,0.20535 4.30988,0.27138c-0.13468,0.76327 -0.13468,0.76327 -0.53874,1.6283c-2.88908,1.09151 -4.76843,0.93175 -8.35039,0.93288c-1.10559,0.00525 -2.21117,0.01049 -3.35026,0.0159c-2.84519,-0.13463 -2.84519,-0.13463 -5.00013,-1.22017c-0.2357,-0.83111 -0.2357,-0.83111 0,-1.6283c1.6162,-0.81415 1.6162,-0.81415 3.01775,-0.92228z" id="Path 1" fill="#fafafa"/><path d="M745.60739,439.42216c0.54932,-0.007 1.09864,-0.01399 1.6646,-0.0212c1.81058,0.10067 2.81624,0.38184 4.29515,0.9032c-0.03367,0.76327 -0.03367,0.76327 -0.53874,1.6283c-4.02804,1.18364 -8.86652,1.53523 -13.46837,1.35692c-1.23378,-0.93226 -1.17359,-1.35294 -1.07747,-2.44245c3.12596,-0.93875 5.48625,-1.39703 9.12482,-1.42476z" id="Path 1" fill="#f6f6f6"/><path d="M707.3909,417.23655c0.35556,0.08956 0.71113,0.17911 1.07747,0.27138c-0.34071,1.2823 -1.03337,2.41686 -1.91924,3.62975c-0.24515,0.33794 -0.49029,0.67587 -0.74287,1.02405c-0.1882,0.25537 -0.3764,0.51075 -0.5703,0.77387c1.3598,0.68499 8.48683,0.3357 9.96659,0.33923c2.6084,0.01049 2.6084,0.01049 5.2695,0.0212c9.92024,-0.16872 20.47963,-1.11876 29.47889,-3.34565c0.71113,-0.08956 1.42226,-0.17911 2.15494,-0.27138c0.26668,0.53734 0.26668,0.53734 0.53874,1.08553c-0.38195,0.03149 -0.76391,0.06297 -1.15744,0.09541c-1.64069,0.18794 -3.03025,0.47631 -4.56662,0.82051c-12.34374,2.61655 -25.72748,2.44102 -38.90675,2.47531c-4.8639,-0.10644 -4.8639,-0.10644 -7.62646,1.22229c-0.17778,-0.26867 -0.35556,-0.53734 -0.53874,-0.81415c0.59585,-0.18418 0.59585,-0.18418 1.20374,-0.37209c2.09922,-1.00519 2.75861,-2.08686 3.77956,-3.44424c0.36945,-0.48451 0.73891,-0.96903 1.11956,-1.46823c0.49689,-0.67782 0.98585,-1.35732 1.43943,-2.0428z" id="Path 1" fill="#100000"/><path d="M712.77825,384.67053c0.53335,0.08956 1.06669,0.17911 1.6162,0.27138c0.61029,0.73146 0.61029,0.73146 1.14481,1.66222c0.17917,0.30295 0.35835,0.60591 0.54294,0.91804c0.90136,1.82849 1.07918,3.56007 1.07326,5.44251c0.00139,0.44253 0.00278,0.88507 0.00421,1.34102c-0.05789,0.98717 -0.21929,1.88398 -0.61029,2.84847c-3.97007,-1.99989 -3.53143,-3.36594 -3.93529,-6.24924c-0.35465,-1.53461 -1.10206,-2.86245 -1.99079,-4.33472c0.53874,-1.08553 0.53874,-1.08553 2.15494,-1.89969z" id="Path 1" fill="#f90000"/><path d="M709.54584,424.02114c1.33546,0.03201 1.33546,0.03201 2.69788,0.06466c2.51348,0.06321 5.02579,0.13258 7.53808,0.20672c-0.53335,0.17911 -1.06669,0.35823 -1.6162,0.54277c-0.57718,0.62457 -1.12051,1.2576 -1.6162,1.89969c-12.98892,0.09347 -12.98892,0.09347 -18.31698,-0.54277c0.70513,-0.36836 1.42686,-0.72868 2.15494,-1.08553c0.35556,-0.2015 0.71113,-0.40301 1.07747,-0.61061c2.60797,-0.76635 5.1281,-0.55687 8.08102,-0.47492z" id="Path 1" fill="#f60000"/><path d="M737.02131,365.4023c2.69367,0 2.69367,0 3.9395,0.50885c1.26318,1.17837 1.25932,2.26475 0.90912,3.56191c-0.71996,0.92316 -1.31171,1.47491 -2.69367,2.17107c-0.88891,-0.08956 -1.77782,-0.17911 -2.69367,-0.27138c-0.01445,-0.94418 -0.02495,-1.88837 -0.03367,-2.83257c-0.00625,-0.52579 -0.0125,-1.05159 -0.01894,-1.59332c0.05261,-1.27317 0.05261,-1.27317 0.59135,-1.54455z" id="Path 1" fill="#f7f7f7"/><path d="M731.63396,385.75607c2.39063,0.61061 2.39063,0.61061 4.30988,1.35692c0.17778,0.35823 0.35556,0.71645 0.53874,1.08553c-2.15494,-0.54277 -2.15494,-0.54277 -3.33342,-0.98377c-2.21888,-0.54645 -3.92689,-0.49086 -6.3638,-0.37315c-2.86114,0.67985 -4.21802,1.51262 -5.38735,2.98522c-0.43439,1.94969 -0.37452,3.69203 1.6162,5.42767c1.3821,0.69622 2.41185,0.68944 4.30988,0.81415c-2.15494,0.54277 -2.15494,0.54277 -3.50177,0.54277c-2.29003,-0.46143 -3.08593,-1.44994 -4.08891,-2.53468c-1.1607,-1.70891 -0.84255,-3.46842 0.31777,-5.14887c2.9868,-2.21925 6.1179,-3.41118 11.5828,-3.17179z" id="Path 1" fill="#210e0e"/><path d="M751.02841,420.49316c0.35556,0.08956 0.71113,0.17911 1.07747,0.27138c-3.92381,1.97659 -8.26921,3.33746 -13.46837,4.34214c-2.63607,-0.33198 -3.23533,-0.83868 -4.84861,-1.89969c0.78891,-0.05597 1.57782,-0.11195 2.39063,-0.16962c5.11745,-0.46321 10.20369,-1.37423 14.84888,-2.54422z" id="Path 1" fill="#f00000"/><path d="M751.02841,419.67901c0.35556,0.08956 0.71113,0.17911 1.07747,0.27138c0,0.26867 0,0.53734 0,0.81415c-0.42223,0.06717 -0.84447,0.13434 -1.2795,0.20354c-1.52638,0.26514 -2.98994,0.55295 -4.47823,0.86503c-5.51147,1.11137 -10.98268,1.5765 -16.86913,1.91665c0,-0.17911 0,-0.35823 0,-0.54277c-0.71113,-0.08956 -1.42226,-0.17911 -2.15494,-0.27138c0.63266,-0.04303 1.26531,-0.08606 1.91714,-0.13039c7.628,-0.55685 14.94015,-1.29605 21.78719,-3.12621z" id="Path 1" fill="#250000"/><path d="M714.93318,405.29568c0.17778,0 0.35556,0 0.53874,0c0.4749,4.15802 -3.61265,8.6421 -6.46482,12.48364c-0.35556,-0.08956 -0.71113,-0.17911 -1.07747,-0.27138c0.32882,-1.62769 1.2543,-3.05486 2.32329,-4.59656c1.4717,-2.17233 2.72515,-4.33249 3.7501,-6.56833c0.39142,-0.77599 0.39142,-0.77599 0.93016,-1.04737z" id="Path 1" fill="#1b0000"/></g><path d="M735.94384,364.58815c3.88053,-0.16566 3.88053,-0.16566 5.89241,0.61061c1.88963,1.26918 1.74507,2.46846 1.64988,4.00291c-0.17778,0.35823 -0.35556,0.71645 -0.53874,1.08553c0.55939,0.0976 0.55939,0.0976 1.13008,0.19718c6.23999,1.37918 11.61524,4.05637 16.64816,6.31603c0.60765,0.27252 1.21531,0.54503 1.84138,0.82581c11.71756,5.34904 11.71756,5.34904 12.43298,7.62206c-0.3828,1.50469 -1.59989,2.6604 -2.92726,4.01881c-0.80211,0.83382 -0.80211,0.83382 -1.62041,1.68449c-1.37862,1.33121 -2.87009,2.54382 -4.5077,3.79407c-2.53403,2.19992 -2.04381,3.95326 -1.32369,6.41038c1.97944,6.80781 -0.99289,13.20459 -8.8323,18.81451c-4.14935,2.70692 -9.34202,4.33135 -15.53492,5.67891c-0.35556,0 -0.71113,0 -1.07747,0c0.41529,0.29141 0.83058,0.58282 1.25845,0.88306c0.54029,0.38586 1.08058,0.77173 1.63725,1.16928c0.53751,0.38097 1.07503,0.76193 1.62883,1.15444c1.63078,1.32105 2.80321,2.30574 2.10864,3.86827c-0.23334,0.27357 -0.46668,0.54714 -0.70709,0.82899c-0.37814,0.45181 -0.37814,0.45181 -0.76391,0.91274c-0.28125,0.3145 -0.56252,0.629 -0.85229,0.95302c-0.29792,0.33409 -0.59585,0.66818 -0.9028,1.01239c-0.76358,0.84182 -1.5396,1.68001 -2.32961,2.5156c0.38334,-0.04373 0.76668,-0.08746 1.16165,-0.13251c1.52905,-0.1386 2.94287,-0.18427 4.49507,-0.18976c0.49445,-0.00385 0.98891,-0.0077 1.49836,-0.01166c2.62842,0.11224 3.9073,0.47885 5.77457,1.41946c0.29886,0.98933 0.20028,1.46604 -0.8544,2.32054c-3.03268,1.54994 -8.53508,1.80071 -12.71498,1.90286c-2.59266,-0.15265 -2.59266,-0.15265 -4.04051,-0.67846c-1.01914,-1.1979 -0.95124,-1.96331 -0.70709,-3.27356c1.06796,-1.25254 2.23459,-2.48428 3.46811,-3.6976c2.71442,-2.65484 2.71442,-2.65484 4.07418,-5.52944c-0.77364,-0.81459 -0.77364,-0.81459 -1.98659,-1.52653c-0.37987,-0.24418 -0.75974,-0.48836 -1.15112,-0.73994c-0.38682,-0.23719 -0.77363,-0.47437 -1.17217,-0.71874c-0.45522,-0.38936 -0.45522,-0.38936 -0.91963,-0.78659c-1.23241,-0.70196 -1.23241,-0.70196 -3.48284,-0.53747c-0.85835,0.07871 -1.71671,0.15742 -2.60108,0.23852c-1.66101,0.09649 -3.32211,0.19261 -4.9833,0.28834c-0.82502,0.04793 -1.65004,0.09585 -2.50006,0.14523c-2.21387,0.10919 -2.21387,0.10919 -4.90754,0.10919c-0.09792,0.18716 -0.19584,0.37432 -0.29672,0.56715c-0.66764,1.25731 -1.35522,2.48799 -2.26227,3.70714c-0.74142,1.26985 -0.78324,1.7827 -0.13468,3.05306c1.54322,1.25839 1.54322,1.25839 3.46811,2.5103c0.63266,0.42679 1.26531,0.85358 1.91714,1.29331c0.53404,0.35683 1.06809,0.71365 1.61831,1.0813c1.33814,1.01112 1.28242,1.51625 1.07747,2.71383c-1.0017,1.13534 -1.48594,1.32411 -3.77114,1.89969c-2.23063,0.06642 -4.46603,0.09526 -6.70051,0.10177c-1.19934,0.0077 -2.39868,0.01539 -3.63435,0.02332c-3.1335,-0.12509 -3.1335,-0.12509 -4.86966,-0.6403c-1.90591,-1.13522 -1.73225,-2.0893 -1.49625,-3.55555c1.38668,-0.73804 2.28164,-1.05057 4.28042,-1.22017c4.05102,0.0376 7.47986,0.32607 11.34289,0.94878c-0.48751,-0.32429 -0.48751,-0.32429 -0.98487,-0.65514c-0.43057,-0.28756 -0.86113,-0.57512 -1.30475,-0.8714c-0.42501,-0.28336 -0.85002,-0.56673 -1.28791,-0.85867c-0.41946,-0.28756 -0.83891,-0.57512 -1.27108,-0.8714c-0.39723,-0.27077 -0.79446,-0.54154 -1.20374,-0.82051c-1.53549,-1.30398 -1.65062,-2.07508 -0.99118,-3.55661c0.24653,-0.39706 0.49307,-0.79411 0.74707,-1.2032c0.36355,-0.59664 0.36355,-0.59664 0.73444,-1.20533c0.54175,-0.82354 1.15124,-1.63586 1.79087,-2.44139c-0.90975,-0.01644 -1.81949,-0.03288 -2.75681,-0.04982c-1.20142,-0.02274 -2.40284,-0.04548 -3.64066,-0.06891c-1.7813,-0.03306 -1.7813,-0.03306 -3.59858,-0.06678c-8.25141,-0.20405 -8.25141,-0.20405 -9.93713,-0.62863c0.20499,-2.14207 1.85475,-3.86701 3.53545,-5.81778c5.32862,-6.37271 9.8317,-13.0693 11.54913,-19.96365c0.12848,-0.36837 0.25695,-0.73674 0.38932,-1.11628c0.66401,-2.28221 0.66401,-2.28221 -0.96804,-4.35062c-1.53971,-0.75615 -3.15725,-1.43862 -4.80863,-2.13185c-1.27809,-0.72483 -2.46343,-1.47465 -3.6575,-2.23467c-0.82712,-0.52118 -1.67947,-1.03235 -2.55057,-1.53501c-0.44029,-0.25608 -0.88058,-0.51215 -1.33421,-0.77599c-0.60002,-0.34213 -0.60002,-0.34213 -1.21215,-0.69118c-1.16439,-0.90601 -1.43006,-1.55821 -1.48152,-2.63327c1.19856,-0.82843 2.32955,-1.46058 3.77114,-2.17107c0.48959,-0.25607 0.97919,-0.51215 1.48363,-0.77599c2.99638,-1.55073 6.08058,-2.97637 9.44259,-4.32199c1.54088,-0.63234 3.00088,-1.29606 4.4614,-1.97495c2.67109,-1.23891 5.44975,-2.38949 8.31672,-3.51102c-0.26668,-0.40301 -0.26668,-0.40301 -0.53874,-0.81415c-0.27363,-1.68851 -0.40596,-3.18741 1.6162,-4.61352c2.6402,-1.30042 4.80218,-1.85781 8.48507,-1.95057c1.75089,0.05089 1.75089,0.05089 2.82836,0.32227c0.35556,-0.35823 0.71113,-0.71645 1.07747,-1.08553zM739.71498,372.18689c-0.68891,-0.01679 -1.37782,-0.03358 -2.0876,-0.05089c-2.27593,-0.06379 -2.27593,-0.06379 -3.73747,0.71238c-0.3889,0.22949 -0.7778,0.45898 -1.17848,0.69542c-1.6162,0.27138 -1.6162,0.27138 -2.92305,0.18339c-2.8254,-0.17911 -4.55498,-0.11099 -6.9762,0.688c-1.96642,0.85775 -3.84598,1.75007 -5.72406,2.65659c-1.36332,0.59712 -2.73262,1.1908 -4.10785,1.78095c-3.53743,1.54695 -7.01777,3.11985 -10.43799,4.73225c-0.45418,0.2078 -0.90835,0.4156 -1.3763,0.62969c-1.34415,0.61814 -1.34415,0.61814 -2.93358,1.54137c1.49189,3.00612 8.61932,6.60102 13.46837,8.41289c0.21103,-1.98436 -0.43125,-3.79058 -1.21005,-5.7351c-0.7821,-2.02091 -0.7821,-2.02091 -0.94489,-2.94918c1.37233,-1.0035 2.42084,-1.31111 4.71393,-1.69615c12.44714,-1.1065 26.95591,-1.45125 37.84612,2.23891c0.38542,0.12979 0.77085,0.25957 1.16796,0.39329c4.95601,1.91708 7.63067,5.0329 9.068,8.01959c2.55254,-1.28582 3.80611,-2.57244 5.45469,-4.18948c0.56807,-0.55378 1.13614,-1.10756 1.72142,-1.67813c2.10432,-1.87547 2.10432,-1.87547 1.98238,-3.9022c-7.17084,-5.15096 -18.35017,-9.8923 -29.09167,-13.02641c-1.25179,-0.05018 -1.25179,-0.05018 -2.69367,0.54277zM736.48257,393.08342c-0.89483,0.53251 -0.89483,0.53251 -1.68355,1.20426c-1.54204,1.23475 -1.54204,1.23475 -2.0876,1.50957c-0.01146,0.88765 0.00543,1.7754 0.03367,2.66295c0.04549,7.10394 -2.84619,12.90584 -8.65343,19.31911c7.4432,-0.55139 13.52987,-2.25492 18.23491,-5.24639c4.87455,-3.54149 5.21993,-7.37801 3.88689,-11.56242c-0.21762,-0.90605 -0.21762,-0.90605 -1.11114,-1.64526c-0.68891,-0.02799 -1.37782,-0.05597 -2.0876,-0.08481c-2.22228,-0.18658 -2.22228,-0.18658 -3.83849,-1.27211c-0.64967,-0.98179 -0.71909,-1.86746 -0.84177,-2.90041c-0.04514,-0.37047 -0.09028,-0.74094 -0.13679,-1.12264c-0.03264,-0.28441 -0.06528,-0.56882 -0.09891,-0.86185c-0.53335,0 -1.06669,0 -1.6162,0z" id="CompoundPath 1" fill="#fb0000"/><path d="M735.94384,364.58815c3.88053,-0.16566 3.88053,-0.16566 5.89241,0.61061c1.88963,1.26918 1.74507,2.46846 1.64988,4.00291c-0.17778,0.35823 -0.35556,0.71645 -0.53874,1.08553c0.55939,0.0976 0.55939,0.0976 1.13008,0.19718c6.23999,1.37918 11.61524,4.05637 16.64816,6.31603c0.60765,0.27252 1.21531,0.54503 1.84138,0.82581c11.71756,5.34904 11.71756,5.34904 12.43298,7.62206c-0.3828,1.50469 -1.59989,2.6604 -2.92726,4.01881c-0.80211,0.83382 -0.80211,0.83382 -1.62041,1.68449c-1.37862,1.33121 -2.87009,2.54382 -4.5077,3.79407c-2.53403,2.19992 -2.04381,3.95326 -1.32369,6.41038c1.97944,6.80781 -0.99289,13.20459 -8.8323,18.81451c-4.14935,2.70692 -9.34202,4.33135 -15.53492,5.67891c-0.35556,0 -0.71113,0 -1.07747,0c0.41529,0.29141 0.83058,0.58282 1.25845,0.88306c0.54029,0.38586 1.08058,0.77173 1.63725,1.16928c0.53751,0.38097 1.07503,0.76193 1.62883,1.15444c1.63078,1.32105 2.80321,2.30574 2.10864,3.86827c-0.23334,0.27357 -0.46668,0.54714 -0.70709,0.82899c-0.37814,0.45181 -0.37814,0.45181 -0.76391,0.91274c-0.28125,0.3145 -0.56252,0.629 -0.85229,0.95302c-0.29792,0.33409 -0.59585,0.66818 -0.9028,1.01239c-0.76358,0.84182 -1.5396,1.68001 -2.32961,2.5156c0.38334,-0.04373 0.76668,-0.08746 1.16165,-0.13251c1.52905,-0.1386 2.94287,-0.18427 4.49507,-0.18976c0.49445,-0.00385 0.98891,-0.0077 1.49836,-0.01166c2.62842,0.11224 3.9073,0.47885 5.77457,1.41946c0.29886,0.98933 0.20028,1.46604 -0.8544,2.32054c-3.03268,1.54994 -8.53508,1.80071 -12.71498,1.90286c-2.59266,-0.15265 -2.59266,-0.15265 -4.04051,-0.67846c-1.01914,-1.1979 -0.95124,-1.96331 -0.70709,-3.27356c1.06796,-1.25254 2.23459,-2.48428 3.46811,-3.6976c2.71442,-2.65484 2.71442,-2.65484 4.07418,-5.52944c-0.77364,-0.81459 -0.77364,-0.81459 -1.98659,-1.52653c-0.37987,-0.24418 -0.75974,-0.48836 -1.15112,-0.73994c-0.38682,-0.23719 -0.77363,-0.47437 -1.17217,-0.71874c-0.45522,-0.38936 -0.45522,-0.38936 -0.91963,-0.78659c-1.23241,-0.70196 -1.23241,-0.70196 -3.48284,-0.53747c-0.85835,0.07871 -1.71671,0.15742 -2.60108,0.23852c-1.66101,0.09649 -3.32211,0.19261 -4.9833,0.28834c-0.82502,0.04793 -1.65004,0.09585 -2.50006,0.14523c-2.21387,0.10919 -2.21387,0.10919 -4.90754,0.10919c-0.09792,0.18716 -0.19584,0.37432 -0.29672,0.56715c-0.66764,1.25731 -1.35522,2.48799 -2.26227,3.70714c-0.74142,1.26985 -0.78324,1.7827 -0.13468,3.05306c1.54322,1.25839 1.54322,1.25839 3.46811,2.5103c0.63266,0.42679 1.26531,0.85358 1.91714,1.29331c0.53404,0.35683 1.06809,0.71365 1.61831,1.0813c1.33814,1.01112 1.28242,1.51625 1.07747,2.71383c-1.0017,1.13534 -1.48594,1.32411 -3.77114,1.89969c-2.23063,0.06642 -4.46603,0.09526 -6.70051,0.10177c-1.19934,0.0077 -2.39868,0.01539 -3.63435,0.02332c-3.1335,-0.12509 -3.1335,-0.12509 -4.86966,-0.6403c-1.90591,-1.13522 -1.73225,-2.0893 -1.49625,-3.55555c1.38668,-0.73804 2.28164,-1.05057 4.28042,-1.22017c4.05102,0.0376 7.47986,0.32607 11.34289,0.94878c-0.48751,-0.32429 -0.48751,-0.32429 -0.98487,-0.65514c-0.43057,-0.28756 -0.86113,-0.57512 -1.30475,-0.8714c-0.42501,-0.28336 -0.85002,-0.56673 -1.28791,-0.85867c-0.41946,-0.28756 -0.83891,-0.57512 -1.27108,-0.8714c-0.39723,-0.27077 -0.79446,-0.54154 -1.20374,-0.82051c-1.53549,-1.30398 -1.65062,-2.07508 -0.99118,-3.55661c0.24653,-0.39706 0.49307,-0.79411 0.74707,-1.2032c0.36355,-0.59664 0.36355,-0.59664 0.73444,-1.20533c0.54175,-0.82354 1.15124,-1.63586 1.79087,-2.44139c-0.90975,-0.01644 -1.81949,-0.03288 -2.75681,-0.04982c-1.20142,-0.02274 -2.40284,-0.04548 -3.64066,-0.06891c-1.7813,-0.03306 -1.7813,-0.03306 -3.59858,-0.06678c-8.25141,-0.20405 -8.25141,-0.20405 -9.93713,-0.62863c0.20499,-2.14207 1.85475,-3.86701 3.53545,-5.81778c5.32862,-6.37271 9.8317,-13.0693 11.54913,-19.96365c0.12848,-0.36837 0.25695,-0.73674 0.38932,-1.11628c0.66401,-2.28221 0.66401,-2.28221 -0.96804,-4.35062c-1.53971,-0.75615 -3.15725,-1.43862 -4.80863,-2.13185c-1.27809,-0.72483 -2.46343,-1.47465 -3.6575,-2.23467c-0.82712,-0.52118 -1.67947,-1.03235 -2.55057,-1.53501c-0.44029,-0.25608 -0.88058,-0.51215 -1.33421,-0.77599c-0.60002,-0.34213 -0.60002,-0.34213 -1.21215,-0.69118c-1.16439,-0.90601 -1.43006,-1.55821 -1.48152,-2.63327c1.19856,-0.82843 2.32955,-1.46058 3.77114,-2.17107c0.48959,-0.25607 0.97919,-0.51215 1.48363,-0.77599c2.99638,-1.55073 6.08058,-2.97637 9.44259,-4.32199c1.54088,-0.63234 3.00088,-1.29606 4.4614,-1.97495c2.67109,-1.23891 5.44975,-2.38949 8.31672,-3.51102c-0.26668,-0.40301 -0.26668,-0.40301 -0.53874,-0.81415c-0.27363,-1.68851 -0.40596,-3.18741 1.6162,-4.61352c2.6402,-1.30042 4.80218,-1.85781 8.48507,-1.95057c1.75089,0.05089 1.75089,0.05089 2.82836,0.32227c0.35556,-0.35823 0.71113,-0.71645 1.07747,-1.08553zM739.71498,372.18689c-0.68891,-0.01679 -1.37782,-0.03358 -2.0876,-0.05089c-2.27593,-0.06379 -2.27593,-0.06379 -3.73747,0.71238c-0.3889,0.22949 -0.7778,0.45898 -1.17848,0.69542c-1.6162,0.27138 -1.6162,0.27138 -2.92305,0.18339c-2.8254,-0.17911 -4.55498,-0.11099 -6.9762,0.688c-1.96642,0.85775 -3.84598,1.75007 -5.72406,2.65659c-1.36332,0.59712 -2.73262,1.1908 -4.10785,1.78095c-3.53743,1.54695 -7.01777,3.11985 -10.43799,4.73225c-0.45418,0.2078 -0.90835,0.4156 -1.3763,0.62969c-1.34415,0.61814 -1.34415,0.61814 -2.93358,1.54137c1.49189,3.00612 8.61932,6.60102 13.46837,8.41289c0.21103,-1.98436 -0.43125,-3.79058 -1.21005,-5.7351c-0.7821,-2.02091 -0.7821,-2.02091 -0.94489,-2.94918c1.37233,-1.0035 2.42084,-1.31111 4.71393,-1.69615c12.44714,-1.1065 26.95591,-1.45125 37.84612,2.23891c0.38542,0.12979 0.77085,0.25957 1.16796,0.39329c4.95601,1.91708 7.63067,5.0329 9.068,8.01959c2.55254,-1.28582 3.80611,-2.57244 5.45469,-4.18948c0.56807,-0.55378 1.13614,-1.10756 1.72142,-1.67813c2.10432,-1.87547 2.10432,-1.87547 1.98238,-3.9022c-7.17084,-5.15096 -18.35017,-9.8923 -29.09167,-13.02641c-1.25179,-0.05018 -1.25179,-0.05018 -2.69367,0.54277zM714.93318,384.39915c0.1882,0.26237 0.3764,0.52474 0.5703,0.79507c1.38602,1.99766 2.5714,3.86014 2.66211,5.98952c0.04062,0.47175 0.04062,0.47175 0.08207,0.95302c0.25577,5.34438 -1.5099,10.67542 -3.85321,15.87275c-0.16181,0.37572 -0.32362,0.75144 -0.49034,1.13854c-2.23664,4.72096 -5.86769,9.24368 -9.20689,13.78755c2.28111,1.14909 7.60722,0.62582 10.539,0.62757c1.73407,0.00455 3.46815,0.0091 5.25477,0.01378c9.67835,-0.1829 20.74422,-1.01832 29.45995,-3.35519c0.39932,-0.10705 0.79863,-0.2141 1.21005,-0.32439c5.79767,-1.72375 8.81905,-4.64113 10.64212,-7.81712c1.53788,-3.17689 1.85337,-6.23982 1.6162,-9.49842c-0.01667,-0.3173 -0.03333,-0.63459 -0.05051,-0.9615c-0.48929,-5.25613 -2.72575,-10.83938 -10.60423,-14.59005c-7.10567,-2.73018 -15.45484,-3.28909 -24.19466,-3.25872c-1.96985,0.00157 -1.96985,0.00157 -3.97948,0.00318c-3.33368,0.07293 -6.39936,0.27501 -9.65724,0.62439z" id="CompoundPath 1" fill="#050202"/><path d="M731.63396,385.75607c2.70624,0.6915 4.71641,1.28004 5.92608,2.71383c0.37038,0.76327 0.37038,0.76327 0.53874,1.35692c1.33337,0.13434 1.33337,0.13434 2.69367,0.27138c0.30001,-0.2071 0.60002,-0.4142 0.90912,-0.62757c1.92112,-1.12468 3.13003,-1.50527 6.09444,-1.64526c2.20614,0.10419 3.18356,0.19698 4.84861,0.91592c2.15361,1.45896 2.02605,3.14506 1.6162,4.8849c-0.49646,0.78465 -1.08912,1.53339 -1.7088,2.2951c-0.88426,1.36784 -0.03796,2.59812 0.63133,3.94672c0.76943,9.49929 0.76943,9.49929 -5.38735,13.02641c-0.53335,0.31345 -1.06669,0.6269 -1.6162,0.94984c-6.49034,3.1202 -16.02273,4.63863 -24.7818,5.02059c0.32904,-1.25875 1.34951,-2.20978 2.52532,-3.32445c4.93215,-4.88877 6.79016,-9.2808 6.70051,-14.7904c-0.00972,-0.77662 -0.01944,-1.55325 -0.02946,-2.35341c-0.01875,-0.88367 -0.01875,-0.88367 -0.03788,-1.78519c-0.80002,0.13434 -0.80002,0.13434 -1.6162,0.27138c-4.25409,0.15307 -4.25409,0.15307 -6.3638,-0.39011c-2.91977,-1.72295 -3.71416,-3.40157 -3.53545,-5.61849c0.59811,-2.29735 3.22589,-3.49858 6.66684,-4.84674c2.12969,-0.35761 3.68131,-0.36971 5.92608,-0.27138zM736.48257,393.08342c-0.89483,0.53251 -0.89483,0.53251 -1.68355,1.20426c-1.54204,1.23475 -1.54204,1.23475 -2.0876,1.50957c-0.01146,0.88765 0.00543,1.7754 0.03367,2.66295c0.04549,7.10394 -2.84619,12.90584 -8.65343,19.31911c7.4432,-0.55139 13.52987,-2.25492 18.23491,-5.24639c4.87455,-3.54149 5.21993,-7.37801 3.88689,-11.56242c-0.21762,-0.90605 -0.21762,-0.90605 -1.11114,-1.64526c-0.68891,-0.02799 -1.37782,-0.05597 -2.0876,-0.08481c-2.22228,-0.18658 -2.22228,-0.18658 -3.83849,-1.27211c-0.64967,-0.98179 -0.71909,-1.86746 -0.84177,-2.90041c-0.04514,-0.37047 -0.09028,-0.74094 -0.13679,-1.12264c-0.03264,-0.28441 -0.06528,-0.56882 -0.09891,-0.86185c-0.53335,0 -1.06669,0 -1.6162,0z" id="CompoundPath 1" fill="#0d0202"/><path d="M712.77825,384.67053c0.53335,0.08956 1.06669,0.17911 1.6162,0.27138c0.61029,0.73146 0.61029,0.73146 1.14481,1.66222c0.17917,0.30295 0.35835,0.60591 0.54294,0.91804c5.58033,11.32016 -3.56256,25.7137 -13.00118,35.9562c-1.6609,0.73887 -3.01636,1.3286 -4.84861,1.89969c-0.17778,-0.17911 -0.35556,-0.35823 -0.53874,-0.54277c0.85656,-1.12203 1.76452,-2.23413 2.69367,-3.34141c5.76051,-7.02989 11.40873,-14.69191 12.18888,-22.35522c0.04028,-0.37607 0.08055,-0.75213 0.12206,-1.1396c0.02639,-0.27881 0.05278,-0.55763 0.07997,-0.84489c1.06669,0.08956 2.13339,0.17911 3.23241,0.27138c-0.81999,-0.71347 -1.53198,-1.31449 -2.69367,-1.89969c-0.33102,-1.54147 -0.51802,-3.08351 -0.72182,-4.63048c-0.33869,-1.53448 -1.0822,-2.85431 -1.97185,-4.32518c0.53874,-1.08553 0.53874,-1.08553 2.15494,-1.89969z" id="Path 1" fill="#f10000"/><path d="M751.02841,420.49316c0.53335,0.13434 0.53335,0.13434 1.07747,0.27138c-3.92381,1.97659 -8.26921,3.33746 -13.46837,4.34214c-0.71113,-0.08956 -1.42226,-0.17911 -2.15494,-0.27138c-0.26668,-0.26867 -0.26668,-0.26867 -0.53874,-0.54277c-0.53335,0 -1.06669,0 -1.6162,0c0.26668,0.67167 0.26668,0.67167 0.53874,1.35692c-5.07433,0.81332 -9.78415,0.90564 -15.08457,0.81415c0,-0.53734 0,-1.07468 0,-1.6283c-0.71113,0 -1.42226,0 -2.15494,0c-0.07778,0.26307 -0.15556,0.52614 -0.2357,0.79719c-0.30304,0.83111 -0.30304,0.83111 -0.84177,1.1025c-5.98341,0.0849 -12.47386,0.15498 -18.31698,-0.54277c3.30577,-1.72694 4.61247,-2.16488 9.70564,-2.29828c1.99728,-0.0028 3.99455,-0.00559 6.05235,-0.00848c12.94554,-0.09749 25.29326,-0.43413 37.03801,-3.39229z" id="Path 1" fill="#ea0000"/><path d="M716.01065,385.75607c6.65286,5.02699 2.10928,14.29343 0.06734,19.64138c-0.37163,0.87178 -0.75278,1.74255 -1.14481,2.61207c-0.16181,0.37572 -0.32362,0.75144 -0.49034,1.13854c-2.23664,4.72096 -5.86769,9.24368 -9.20689,13.78755c1.3598,0.68499 8.48683,0.3357 9.96659,0.33923c2.6084,0.01049 2.6084,0.01049 5.2695,0.0212c9.92024,-0.16872 20.47963,-1.11876 29.47889,-3.34565c0.71113,-0.08956 1.42226,-0.17911 2.15494,-0.27138c0.17778,0.35823 0.35556,0.71645 0.53874,1.08553c-0.38195,0.03149 -0.76391,0.06297 -1.15744,0.09541c-1.64069,0.18794 -3.03025,0.47631 -4.56662,0.82051c-12.34374,2.61655 -25.72748,2.44102 -38.90675,2.47531c-4.8639,-0.10644 -4.8639,-0.10644 -7.62646,1.22229c-0.17778,-0.26867 -0.35556,-0.53734 -0.53874,-0.81415c0.40349,-0.13224 0.80697,-0.26447 1.22267,-0.40071c8.18892,-3.81233 11.48284,-13.71161 13.32316,-19.1389c0.19861,-0.57302 0.39723,-1.14605 0.60187,-1.73643c1.71654,-5.42074 2.53615,-10.85396 0.65869,-16.29361c-0.18308,-0.69542 -0.18308,-0.69542 0.35565,-1.23819z" id="Path 1" fill="#220000"/><path d="M733.7889,366.21645c1.57219,0.79198 1.23939,1.40814 1.24582,2.5103c0.00903,0.35403 0.01806,0.70806 0.02736,1.07281c-0.25532,1.34426 -0.964,2.26927 -2.95673,3.18452c-2.28527,0.42544 -4.03928,0.25455 -6.39748,0.01696c-2.0128,-1.01393 -2.11846,-1.3747 -2.32329,-2.79864c0.1834,-1.38578 0.49386,-1.88433 2.32329,-2.90041c2.73374,-1.00634 4.71138,-1.25815 8.08102,-1.08553z" id="Path 1" fill="#f9f9f9"/><path d="M733.14915,386.89249c1.36335,0.56905 2.38296,1.09379 3.33342,1.8488c-0.17778,0.35823 -0.35556,0.71645 -0.53874,1.08553c0,-0.17911 0,-0.35823 0,-0.54277c-3.69655,0.08594 -5.79719,0.31797 -8.61975,1.6283c-2.29775,1.72137 -2.41759,3.15696 -2.15494,5.15629c-2.15494,-0.54277 -2.15494,-0.54277 -3.77114,-1.6283c-0.86878,-1.75056 -1.34219,-3.65873 0.08838,-5.35876c2.7993,-2.20197 6.38928,-3.31072 11.66277,-2.18909z" id="Path 1" fill="#f8f8f8"/><path d="M749.95094,397.69694c3.01598,3.03856 3.25988,7.45981 1.58253,10.71965c-2.274,2.66054 -5.15502,4.58017 -9.66355,6.37751c-0.35556,-0.08956 -0.71113,-0.17911 -1.07747,-0.27138c0.85002,-0.51215 0.85002,-0.51215 1.71722,-1.03465c5.8517,-3.79082 6.13392,-8.08931 5.04432,-12.75714c-0.23879,-0.65348 -0.52907,-1.30216 -0.83546,-1.94845c1.06669,-0.35823 2.13339,-0.71645 3.23241,-1.08553z" id="Path 1" fill="#f50000"/><path d="M749.95094,388.74129c1.44976,0.59046 2.40024,1.06129 3.23241,1.89969c0.02167,0.63314 0.02327,1.26657 0,1.89969c-0.35556,-0.08956 -0.71113,-0.17911 -1.07747,-0.27138c-3.0818,-0.14927 -4.61617,0.09671 -7.00355,1.08553c-2.20667,1.26181 -2.76265,1.89035 -2.72735,3.56191c0.00729,0.44603 0.00729,0.44603 0.01473,0.90108c0.00626,0.22879 0.0125,0.45758 0.01894,0.6933c-0.53335,-0.08956 -1.06669,-0.17911 -1.6162,-0.27138c-1.81873,-1.83235 -1.58451,-3.98319 -0.72603,-5.96938c1.64714,-2.33964 4.63464,-3.99825 9.88452,-3.52905z" id="Path 1" fill="#f5f5f5"/><path d="M708.25372,439.92464c3.64154,0.01422 6.45989,0.28297 9.91188,0.92228c1.43165,0.10867 2.86802,0.20535 4.30988,0.27138c-0.13468,0.76327 -0.13468,0.76327 -0.53874,1.6283c-2.88908,1.09151 -4.76843,0.93175 -8.35039,0.93288c-1.10559,0.00525 -2.21117,0.01049 -3.35026,0.0159c-2.84519,-0.13463 -2.84519,-0.13463 -5.00013,-1.22017c-0.2357,-0.83111 -0.2357,-0.83111 0,-1.6283c1.6162,-0.81415 1.6162,-0.81415 3.01775,-0.92228z" id="Path 1" fill="#fafafa"/><path d="M745.60739,439.42216c0.54932,-0.007 1.09864,-0.01399 1.6646,-0.0212c1.81058,0.10067 2.81624,0.38184 4.29515,0.9032c-0.03367,0.76327 -0.03367,0.76327 -0.53874,1.6283c-4.02804,1.18364 -8.86652,1.53523 -13.46837,1.35692c-1.23378,-0.93226 -1.17359,-1.35294 -1.07747,-2.44245c3.12596,-0.93875 5.48625,-1.39703 9.12482,-1.42476z" id="Path 1" fill="#f6f6f6"/><path d="M707.3909,417.23655c0.35556,0.08956 0.71113,0.17911 1.07747,0.27138c-0.34071,1.2823 -1.03337,2.41686 -1.91924,3.62975c-0.24515,0.33794 -0.49029,0.67587 -0.74287,1.02405c-0.1882,0.25537 -0.3764,0.51075 -0.5703,0.77387c1.3598,0.68499 8.48683,0.3357 9.96659,0.33923c2.6084,0.01049 2.6084,0.01049 5.2695,0.0212c9.92024,-0.16872 20.47963,-1.11876 29.47889,-3.34565c0.71113,-0.08956 1.42226,-0.17911 2.15494,-0.27138c0.26668,0.53734 0.26668,0.53734 0.53874,1.08553c-0.38195,0.03149 -0.76391,0.06297 -1.15744,0.09541c-1.64069,0.18794 -3.03025,0.47631 -4.56662,0.82051c-12.34374,2.61655 -25.72748,2.44102 -38.90675,2.47531c-4.8639,-0.10644 -4.8639,-0.10644 -7.62646,1.22229c-0.17778,-0.26867 -0.35556,-0.53734 -0.53874,-0.81415c0.59585,-0.18418 0.59585,-0.18418 1.20374,-0.37209c2.09922,-1.00519 2.75861,-2.08686 3.77956,-3.44424c0.36945,-0.48451 0.73891,-0.96903 1.11956,-1.46823c0.49689,-0.67782 0.98585,-1.35732 1.43943,-2.0428z" id="Path 1" fill="#100000"/><path d="M712.77825,384.67053c0.53335,0.08956 1.06669,0.17911 1.6162,0.27138c0.61029,0.73146 0.61029,0.73146 1.14481,1.66222c0.17917,0.30295 0.35835,0.60591 0.54294,0.91804c0.90136,1.82849 1.07918,3.56007 1.07326,5.44251c0.00139,0.44253 0.00278,0.88507 0.00421,1.34102c-0.05789,0.98717 -0.21929,1.88398 -0.61029,2.84847c-3.97007,-1.99989 -3.53143,-3.36594 -3.93529,-6.24924c-0.35465,-1.53461 -1.10206,-2.86245 -1.99079,-4.33472c0.53874,-1.08553 0.53874,-1.08553 2.15494,-1.89969z" id="Path 1" fill="#f90000"/><path d="M709.54584,424.02114c1.33546,0.03201 1.33546,0.03201 2.69788,0.06466c2.51348,0.06321 5.02579,0.13258 7.53808,0.20672c-0.53335,0.17911 -1.06669,0.35823 -1.6162,0.54277c-0.57718,0.62457 -1.12051,1.2576 -1.6162,1.89969c-12.98892,0.09347 -12.98892,0.09347 -18.31698,-0.54277c0.70513,-0.36836 1.42686,-0.72868 2.15494,-1.08553c0.35556,-0.2015 0.71113,-0.40301 1.07747,-0.61061c2.60797,-0.76635 5.1281,-0.55687 8.08102,-0.47492z" id="Path 1" fill="#f60000"/><path d="M737.02131,365.4023c2.69367,0 2.69367,0 3.9395,0.50885c1.26318,1.17837 1.25932,2.26475 0.90912,3.56191c-0.71996,0.92316 -1.31171,1.47491 -2.69367,2.17107c-0.88891,-0.08956 -1.77782,-0.17911 -2.69367,-0.27138c-0.01445,-0.94418 -0.02495,-1.88837 -0.03367,-2.83257c-0.00625,-0.52579 -0.0125,-1.05159 -0.01894,-1.59332c0.05261,-1.27317 0.05261,-1.27317 0.59135,-1.54455z" id="Path 1" fill="#f7f7f7"/><path d="M731.63396,385.75607c2.39063,0.61061 2.39063,0.61061 4.30988,1.35692c0.17778,0.35823 0.35556,0.71645 0.53874,1.08553c-2.15494,-0.54277 -2.15494,-0.54277 -3.33342,-0.98377c-2.21888,-0.54645 -3.92689,-0.49086 -6.3638,-0.37315c-2.86114,0.67985 -4.21802,1.51262 -5.38735,2.98522c-0.43439,1.94969 -0.37452,3.69203 1.6162,5.42767c1.3821,0.69622 2.41185,0.68944 4.30988,0.81415c-2.15494,0.54277 -2.15494,0.54277 -3.50177,0.54277c-2.29003,-0.46143 -3.08593,-1.44994 -4.08891,-2.53468c-1.1607,-1.70891 -0.84255,-3.46842 0.31777,-5.14887c2.9868,-2.21925 6.1179,-3.41118 11.5828,-3.17179z" id="Path 1" fill="#210e0e"/><path d="M751.02841,420.49316c0.35556,0.08956 0.71113,0.17911 1.07747,0.27138c-3.92381,1.97659 -8.26921,3.33746 -13.46837,4.34214c-2.63607,-0.33198 -3.23533,-0.83868 -4.84861,-1.89969c0.78891,-0.05597 1.57782,-0.11195 2.39063,-0.16962c5.11745,-0.46321 10.20369,-1.37423 14.84888,-2.54422z" id="Path 1" fill="#f00000"/><path d="M751.02841,419.67901c0.35556,0.08956 0.71113,0.17911 1.07747,0.27138c0,0.26867 0,0.53734 0,0.81415c-0.42223,0.06717 -0.84447,0.13434 -1.2795,0.20354c-1.52638,0.26514 -2.98994,0.55295 -4.47823,0.86503c-5.51147,1.11137 -10.98268,1.5765 -16.86913,1.91665c0,-0.17911 0,-0.35823 0,-0.54277c-0.71113,-0.08956 -1.42226,-0.17911 -2.15494,-0.27138c0.63266,-0.04303 1.26531,-0.08606 1.91714,-0.13039c7.628,-0.55685 14.94015,-1.29605 21.78719,-3.12621z" id="Path 1" fill="#250000"/><path d="M714.93318,405.29568c0.17778,0 0.35556,0 0.53874,0c0.4749,4.15802 -3.61265,8.6421 -6.46482,12.48364c-0.35556,-0.08956 -0.71113,-0.17911 -1.07747,-0.27138c0.32882,-1.62769 1.2543,-3.05486 2.32329,-4.59656c1.4717,-2.17233 2.72515,-4.33249 3.7501,-6.56833c0.39142,-0.77599 0.39142,-0.77599 0.93016,-1.04737z" id="Path 1" fill="#1b0000"/></g></svg>