<svg version="1.1" xmlns="http://www.w3.org/2000/svg" xmlns:xlink="http://www.w3.org/1999/xlink" width="80.00761" height="80.00553" viewBox="694.99238,362.5,80.00761,80.00553"><defs><clipPath id="clip-1"><rect x="2591.32134" y="1359.375" transform="scale(0.2682,0.26667)" width="298.28158" height="300" id="clip-1" fill="none"/></clipPath></defs><g fill="none" fill-rule="nonzero" stroke="none" stroke-width="1" stroke-linecap="butt" stroke-linejoin="miter" stroke-miterlimit="10" stroke-dasharray="" stroke-dashoffset="0" font-family="none" font-weight="none" font-size="none" text-anchor="none" style="mix-blend-mode: normal"><g><g clip-path="url(#clip-1)" id="Group 1"><g id="Group 1"><path d="M733.21892,362.5c1.3276,0.33 2.65521,0.66 4.02304,1c6.63384,12.543 13.07583,25.18658 19.42376,37.875c3.52256,7.00992 7.04513,14.01984 10.67442,21.24219c8.12073,16.88281 8.12073,16.88281 7.11497,19.88281c-26.22019,0 -52.44038,0 -79.45512,0c2.48982,-14.85337 12.99001,-30.17132 19.6752,-43.375c5.16716,-10.22098 5.16716,-10.22098 10.4387,-20.64844c2.67465,-5.27226 5.34931,-10.54453 8.10502,-15.97656zM736.2362,375.5c0,2.31 0,4.62 0,7c0.3319,0 0.6638,0 1.00576,0c0,-2.31 0,-4.62 0,-7c-0.3319,0 -0.6638,0 -1.00576,0zM737.24197,386.5c0,2.64 0,5.28 0,8c0.3319,0 0.6638,0 1.00576,0c0,-2.64 0,-5.28 0,-8c-0.3319,0 -0.6638,0 -1.00576,0zM738.24773,397.5c-0.3319,2.64 -0.6638,5.28 -1.00576,8c0.6638,0 1.3276,0 2.01152,0c0,-2.64 0,-5.28 0,-8c-0.3319,0 -0.6638,0 -1.00576,0zM739.25349,409.5c0,2.31 0,4.62 0,7c0.3319,0 0.6638,0 1.00576,0c0,-2.31 0,-4.62 0,-7c-0.3319,0 -0.6638,0 -1.00576,0zM740.25925,420.5c0,2.64 0,5.28 0,8c0.3319,0 0.6638,0 1.00576,0c0,-2.64 0,-5.28 0,-8c-0.3319,0 -0.6638,0 -1.00576,0z" id="CompoundPath 1" fill="#4baf4f"/><path d="M736.2362,363.5c8.82786,11.70307 14.83435,27.10423 21.37242,40.0625c3.34494,6.6116 6.68988,13.2232 10.13618,20.03516c7.71608,15.90234 7.71608,15.90234 6.71032,18.90234c-5.34434,-2.14278 -10.68718,-4.2893 -16.02932,-6.4375c-2.97544,-1.19496 -5.95089,-2.38992 -9.01649,-3.62109c-7.13855,-2.94141 -7.13855,-2.94141 -8.14431,-3.94141c-0.91427,-8.59854 -1.76101,-17.20421 -2.57726,-25.8125c-0.68649,-7.15623 -0.68649,-7.15623 -1.38685,-14.45703c-1.06469,-12.73047 -1.06469,-12.73047 -1.06469,-24.73047z" id="Path 1" fill="#d63a2f"/><path d="M733.21892,362.5c0.6638,0 1.3276,0 2.01152,0c0.50874,5.12443 1.01022,10.24957 1.50864,15.375c0.28004,2.85398 0.56008,5.70797 0.84861,8.64844c1.40368,16.96361 1.40368,16.96361 -1.59114,21.04297c-1.02034,0.82371 -2.04068,1.64742 -3.09193,2.49609c-1.10331,0.91652 -2.20662,1.83305 -3.34337,2.77734c-1.11627,0.87786 -2.23255,1.75571 -3.38266,2.66016c-1.88613,1.54126 -3.77196,3.08291 -5.65741,4.625c-0.90236,0.72187 -1.80471,1.44375 -2.73441,2.1875c-2.68422,2.19787 -5.25908,4.48078 -7.82608,6.8125c-4.47232,4.05476 -9.13237,7.74012 -13.95493,11.375c-0.3319,-0.66 -0.6638,-1.32 -1.00576,-2c6.26301,-12.75038 12.63055,-25.45007 19.0466,-38.125c5.33441,-10.55355 5.33441,-10.55355 10.77657,-21.32031c2.7706,-5.46305 5.5412,-10.9261 8.39575,-16.55469z" id="Path 1" fill="#3e50b4"/><path d="M751.32262,393.5c5.75479,7.6291 9.53376,16.56946 13.82921,25.0625c2.9171,5.74084 2.9171,5.74084 5.89313,11.59766c4.41592,9.33984 4.41592,9.33984 3.41015,12.33984c-3.66808,-1.47612 -7.33463,-2.95597 -11.00051,-4.4375c-2.04197,-0.82371 -4.08394,-1.64742 -6.18779,-2.49609c-4.93845,-2.06641 -4.93845,-2.06641 -5.94421,-3.06641c-0.07421,-6.52045 -0.08395,-13.04167 -0.06286,-19.5625c0.00907,-3.61066 0.01815,-7.22133 0.0275,-10.94141c0.01168,-2.80371 0.02334,-5.60742 0.03536,-8.49609z" id="Path 1" fill="#f44235"/><path d="M719.13827,390.5c0.3319,0 0.6638,0 1.00576,0c2.14586,26.61883 2.14586,26.61883 -2.78155,34.38281c-3.61668,2.98107 -7.21904,5.31225 -11.2991,7.61719c-1.99744,1.54849 -3.9713,3.12802 -5.90885,4.75c-1.38083,1.08597 -2.76284,2.17047 -4.14876,3.25c-0.3319,-0.66 -0.6638,-1.32 -1.00576,-2c3.91644,-8.08325 7.93692,-16.11677 12.00627,-24.125c2.2494,-4.43695 4.49882,-8.87391 6.81639,-13.44531c2.63123,-5.1627 2.63123,-5.1627 5.31561,-10.42969z" id="Path 1" fill="#37479f"/><path d="M720.14403,420.5c0,7.26 0,14.52 0,22c-8.29753,0 -16.59506,0 -25.14403,0c3.55736,-4.24437 6.17053,-7.1428 10.37191,-10.4375c3.53128,-2.80314 6.99652,-5.63781 10.37191,-8.625c3.39444,-2.9375 3.39444,-2.9375 4.4002,-2.9375z" id="Path 1" fill="#419945"/><path d="M739.25349,405.5c0.81755,7.72225 1.09764,15.23486 1.00576,23c-5.97422,-2.31 -11.94844,-4.62 -18.1037,-7c0,-3 0,-3 2.78942,-5.88281c1.19536,-1.06992 2.39072,-2.13985 3.62231,-3.24219c1.19018,-1.07508 2.38035,-2.15016 3.6066,-3.25781c4.22445,-3.61719 4.22445,-3.61719 7.07961,-3.61719z" id="Path 1" fill="#ced7db"/><path d="M733.21892,409.5c0,4.95 0,9.9 0,15c-5.02755,-0.83313 -7.76218,-1.65494 -12.06913,-4c9.14855,-11 9.14855,-11 12.06913,-11z" id="Path 1" fill="#b6bec2"/></g></g></g><rect x="2591.32134" y="1359.375" transform="scale(0.2682,0.26667)" width="298.28158" height="300" id="clip-1 1" fill="none"/><g id="Group 1"><path d="M733.21892,362.5c1.3276,0.33 2.65521,0.66 4.02304,1c6.63384,12.543 13.07583,25.18658 19.42376,37.875c3.52256,7.00992 7.04513,14.01984 10.67442,21.24219c8.12073,16.88281 8.12073,16.88281 7.11497,19.88281c-26.22019,0 -52.44038,0 -79.45512,0c2.48982,-14.85337 12.99001,-30.17132 19.6752,-43.375c5.16716,-10.22098 5.16716,-10.22098 10.4387,-20.64844c2.67465,-5.27226 5.34931,-10.54453 8.10502,-15.97656zM736.2362,375.5c0,2.31 0,4.62 0,7c0.3319,0 0.6638,0 1.00576,0c0,-2.31 0,-4.62 0,-7c-0.3319,0 -0.6638,0 -1.00576,0zM737.24197,386.5c0,2.64 0,5.28 0,8c0.3319,0 0.6638,0 1.00576,0c0,-2.64 0,-5.28 0,-8c-0.3319,0 -0.6638,0 -1.00576,0zM738.24773,397.5c-0.3319,2.64 -0.6638,5.28 -1.00576,8c0.6638,0 1.3276,0 2.01152,0c0,-2.64 0,-5.28 0,-8c-0.3319,0 -0.6638,0 -1.00576,0zM739.25349,409.5c0,2.31 0,4.62 0,7c0.3319,0 0.6638,0 1.00576,0c0,-2.31 0,-4.62 0,-7c-0.3319,0 -0.6638,0 -1.00576,0zM740.25925,420.5c0,2.64 0,5.28 0,8c0.3319,0 0.6638,0 1.00576,0c0,-2.64 0,-5.28 0,-8c-0.3319,0 -0.6638,0 -1.00576,0z" id="CompoundPath 1" fill="#4baf4f"/><path d="M736.2362,363.5c8.82786,11.70307 14.83435,27.10423 21.37242,40.0625c3.34494,6.6116 6.68988,13.2232 10.13618,20.03516c7.71608,15.90234 7.71608,15.90234 6.71032,18.90234c-5.34434,-2.14278 -10.68718,-4.2893 -16.02932,-6.4375c-2.97544,-1.19496 -5.95089,-2.38992 -9.01649,-3.62109c-7.13855,-2.94141 -7.13855,-2.94141 -8.14431,-3.94141c-0.91427,-8.59854 -1.76101,-17.20421 -2.57726,-25.8125c-0.68649,-7.15623 -0.68649,-7.15623 -1.38685,-14.45703c-1.06469,-12.73047 -1.06469,-12.73047 -1.06469,-24.73047z" id="Path 1" fill="#d63a2f"/><path d="M733.21892,362.5c0.6638,0 1.3276,0 2.01152,0c0.50874,5.12443 1.01022,10.24957 1.50864,15.375c0.28004,2.85398 0.56008,5.70797 0.84861,8.64844c1.40368,16.96361 1.40368,16.96361 -1.59114,21.04297c-1.02034,0.82371 -2.04068,1.64742 -3.09193,2.49609c-1.10331,0.91652 -2.20662,1.83305 -3.34337,2.77734c-1.11627,0.87786 -2.23255,1.75571 -3.38266,2.66016c-1.88613,1.54126 -3.77196,3.08291 -5.65741,4.625c-0.90236,0.72187 -1.80471,1.44375 -2.73441,2.1875c-2.68422,2.19787 -5.25908,4.48078 -7.82608,6.8125c-4.47232,4.05476 -9.13237,7.74012 -13.95493,11.375c-0.3319,-0.66 -0.6638,-1.32 -1.00576,-2c6.26301,-12.75038 12.63055,-25.45007 19.0466,-38.125c5.33441,-10.55355 5.33441,-10.55355 10.77657,-21.32031c2.7706,-5.46305 5.5412,-10.9261 8.39575,-16.55469z" id="Path 1" fill="#3e50b4"/><path d="M751.32262,393.5c5.75479,7.6291 9.53376,16.56946 13.82921,25.0625c2.9171,5.74084 2.9171,5.74084 5.89313,11.59766c4.41592,9.33984 4.41592,9.33984 3.41015,12.33984c-3.66808,-1.47612 -7.33463,-2.95597 -11.00051,-4.4375c-2.04197,-0.82371 -4.08394,-1.64742 -6.18779,-2.49609c-4.93845,-2.06641 -4.93845,-2.06641 -5.94421,-3.06641c-0.07421,-6.52045 -0.08395,-13.04167 -0.06286,-19.5625c0.00907,-3.61066 0.01815,-7.22133 0.0275,-10.94141c0.01168,-2.80371 0.02334,-5.60742 0.03536,-8.49609z" id="Path 1" fill="#f44235"/><path d="M719.13827,390.5c0.3319,0 0.6638,0 1.00576,0c2.14586,26.61883 2.14586,26.61883 -2.78155,34.38281c-3.61668,2.98107 -7.21904,5.31225 -11.2991,7.61719c-1.99744,1.54849 -3.9713,3.12802 -5.90885,4.75c-1.38083,1.08597 -2.76284,2.17047 -4.14876,3.25c-0.3319,-0.66 -0.6638,-1.32 -1.00576,-2c3.91644,-8.08325 7.93692,-16.11677 12.00627,-24.125c2.2494,-4.43695 4.49882,-8.87391 6.81639,-13.44531c2.63123,-5.1627 2.63123,-5.1627 5.31561,-10.42969z" id="Path 1" fill="#37479f"/><path d="M720.14403,420.5c0,7.26 0,14.52 0,22c-8.29753,0 -16.59506,0 -25.14403,0c3.55736,-4.24437 6.17053,-7.1428 10.37191,-10.4375c3.53128,-2.80314 6.99652,-5.63781 10.37191,-8.625c3.39444,-2.9375 3.39444,-2.9375 4.4002,-2.9375z" id="Path 1" fill="#419945"/><path d="M739.25349,405.5c0.81755,7.72225 1.09764,15.23486 1.00576,23c-5.97422,-2.31 -11.94844,-4.62 -18.1037,-7c0,-3 0,-3 2.78942,-5.88281c1.19536,-1.06992 2.39072,-2.13985 3.62231,-3.24219c1.19018,-1.07508 2.38035,-2.15016 3.6066,-3.25781c4.22445,-3.61719 4.22445,-3.61719 7.07961,-3.61719z" id="Path 1" fill="#ced7db"/><path d="M733.21892,409.5c0,4.95 0,9.9 0,15c-5.02755,-0.83313 -7.76218,-1.65494 -12.06913,-4c9.14855,-11 9.14855,-11 12.06913,-11z" id="Path 1" fill="#b6bec2"/></g><path d="M733.21892,362.5c1.3276,0.33 2.65521,0.66 4.02304,1c6.63384,12.543 13.07583,25.18658 19.42376,37.875c3.52256,7.00992 7.04513,14.01984 10.67442,21.24219c8.12073,16.88281 8.12073,16.88281 7.11497,19.88281c-26.22019,0 -52.44038,0 -79.45512,0c2.48982,-14.85337 12.99001,-30.17132 19.6752,-43.375c5.16716,-10.22098 5.16716,-10.22098 10.4387,-20.64844c2.67465,-5.27226 5.34931,-10.54453 8.10502,-15.97656zM736.2362,375.5c0,2.31 0,4.62 0,7c0.3319,0 0.6638,0 1.00576,0c0,-2.31 0,-4.62 0,-7c-0.3319,0 -0.6638,0 -1.00576,0zM737.24197,386.5c0,2.64 0,5.28 0,8c0.3319,0 0.6638,0 1.00576,0c0,-2.64 0,-5.28 0,-8c-0.3319,0 -0.6638,0 -1.00576,0zM738.24773,397.5c-0.3319,2.64 -0.6638,5.28 -1.00576,8c0.6638,0 1.3276,0 2.01152,0c0,-2.64 0,-5.28 0,-8c-0.3319,0 -0.6638,0 -1.00576,0zM739.25349,409.5c0,2.31 0,4.62 0,7c0.3319,0 0.6638,0 1.00576,0c0,-2.31 0,-4.62 0,-7c-0.3319,0 -0.6638,0 -1.00576,0zM740.25925,420.5c0,2.64 0,5.28 0,8c0.3319,0 0.6638,0 1.00576,0c0,-2.64 0,-5.28 0,-8c-0.3319,0 -0.6638,0 -1.00576,0z" id="CompoundPath 1" fill="#4baf4f"/><path d="M736.2362,363.5c8.82786,11.70307 14.83435,27.10423 21.37242,40.0625c3.34494,6.6116 6.68988,13.2232 10.13618,20.03516c7.71608,15.90234 7.71608,15.90234 6.71032,18.90234c-5.34434,-2.14278 -10.68718,-4.2893 -16.02932,-6.4375c-2.97544,-1.19496 -5.95089,-2.38992 -9.01649,-3.62109c-7.13855,-2.94141 -7.13855,-2.94141 -8.14431,-3.94141c-0.91427,-8.59854 -1.76101,-17.20421 -2.57726,-25.8125c-0.68649,-7.15623 -0.68649,-7.15623 -1.38685,-14.45703c-1.06469,-12.73047 -1.06469,-12.73047 -1.06469,-24.73047z" id="Path 1" fill="#d63a2f"/><path d="M733.21892,362.5c0.6638,0 1.3276,0 2.01152,0c0.50874,5.12443 1.01022,10.24957 1.50864,15.375c0.28004,2.85398 0.56008,5.70797 0.84861,8.64844c1.40368,16.96361 1.40368,16.96361 -1.59114,21.04297c-1.02034,0.82371 -2.04068,1.64742 -3.09193,2.49609c-1.10331,0.91652 -2.20662,1.83305 -3.34337,2.77734c-1.11627,0.87786 -2.23255,1.75571 -3.38266,2.66016c-1.88613,1.54126 -3.77196,3.08291 -5.65741,4.625c-0.90236,0.72187 -1.80471,1.44375 -2.73441,2.1875c-2.68422,2.19787 -5.25908,4.48078 -7.82608,6.8125c-4.47232,4.05476 -9.13237,7.74012 -13.95493,11.375c-0.3319,-0.66 -0.6638,-1.32 -1.00576,-2c6.26301,-12.75038 12.63055,-25.45007 19.0466,-38.125c5.33441,-10.55355 5.33441,-10.55355 10.77657,-21.32031c2.7706,-5.46305 5.5412,-10.9261 8.39575,-16.55469z" id="Path 1" fill="#3e50b4"/><path d="M751.32262,393.5c5.75479,7.6291 9.53376,16.56946 13.82921,25.0625c2.9171,5.74084 2.9171,5.74084 5.89313,11.59766c4.41592,9.33984 4.41592,9.33984 3.41015,12.33984c-3.66808,-1.47612 -7.33463,-2.95597 -11.00051,-4.4375c-2.04197,-0.82371 -4.08394,-1.64742 -6.18779,-2.49609c-4.93845,-2.06641 -4.93845,-2.06641 -5.94421,-3.06641c-0.07421,-6.52045 -0.08395,-13.04167 -0.06286,-19.5625c0.00907,-3.61066 0.01815,-7.22133 0.0275,-10.94141c0.01168,-2.80371 0.02334,-5.60742 0.03536,-8.49609z" id="Path 1" fill="#f44235"/><path d="M719.13827,390.5c0.3319,0 0.6638,0 1.00576,0c2.14586,26.61883 2.14586,26.61883 -2.78155,34.38281c-3.61668,2.98107 -7.21904,5.31225 -11.2991,7.61719c-1.99744,1.54849 -3.9713,3.12802 -5.90885,4.75c-1.38083,1.08597 -2.76284,2.17047 -4.14876,3.25c-0.3319,-0.66 -0.6638,-1.32 -1.00576,-2c3.91644,-8.08325 7.93692,-16.11677 12.00627,-24.125c2.2494,-4.43695 4.49882,-8.87391 6.81639,-13.44531c2.63123,-5.1627 2.63123,-5.1627 5.31561,-10.42969z" id="Path 1" fill="#37479f"/><path d="M720.14403,420.5c0,7.26 0,14.52 0,22c-8.29753,0 -16.59506,0 -25.14403,0c3.55736,-4.24437 6.17053,-7.1428 10.37191,-10.4375c3.53128,-2.80314 6.99652,-5.63781 10.37191,-8.625c3.39444,-2.9375 3.39444,-2.9375 4.4002,-2.9375z" id="Path 1" fill="#419945"/><path d="M739.25349,405.5c0.81755,7.72225 1.09764,15.23486 1.00576,23c-5.97422,-2.31 -11.94844,-4.62 -18.1037,-7c0,-3 0,-3 2.78942,-5.88281c1.19536,-1.06992 2.39072,-2.13985 3.62231,-3.24219c1.19018,-1.07508 2.38035,-2.15016 3.6066,-3.25781c4.22445,-3.61719 4.22445,-3.61719 7.07961,-3.61719z" id="Path 1" fill="#ced7db"/><path d="M733.21892,409.5c0,4.95 0,9.9 0,15c-5.02755,-0.83313 -7.76218,-1.65494 -12.06913,-4c9.14855,-11 9.14855,-11 12.06913,-11z" id="Path 1" fill="#b6bec2"/></g></svg>