<svg version="1.1" xmlns="http://www.w3.org/2000/svg" xmlns:xlink="http://www.w3.org/1999/xlink" width="80" height="80" viewBox="695,362.5,80,80"><defs><clipPath id="clip-1"><rect x="1112" y="580" transform="scale(0.625,0.625)" width="128" height="128" id="clip-1" fill="none"/></clipPath></defs><g fill="none" fill-rule="nonzero" stroke="none" stroke-width="1" stroke-linecap="butt" stroke-linejoin="miter" stroke-miterlimit="10" stroke-dasharray="" stroke-dashoffset="0" font-family="none" font-weight="none" font-size="none" text-anchor="none" style="mix-blend-mode: normal"><g><g clip-path="url(#clip-1)" id="Group 1"><path d="M711.66625,362.5c-9.185,0 -16.66625,7.48125 -16.66625,16.66625c0,8.04375 5.73813,14.78188 13.33375,16.33125v23.66875c0,7.35625 6.05,13.33375 13.3325,13.33375h0.12188c0.81375,5.63938 5.6875,10 11.54562,10c6.42375,0 11.66625,-5.2425 11.66625,-11.66625c0,-6.42375 -5.2425,-11.6675 -11.66625,-11.6675c-5.8575,0 -10.73125,4.36063 -11.54562,10h-0.12188c-5.46062,0 -10,-4.47 -10,-10v-16.80437c2.17901,2.2233 5.16194,3.47483 8.275,3.47188h1.84688c0.81437,5.63937 5.6875,10 11.54562,10c5.8575,0 10.73063,-4.36063 11.54375,-10h6.91062c0.81437,5.63937 5.6875,10 11.54562,10c6.42375,0 11.66625,-5.24375 11.66625,-11.6675c0,-6.42375 -5.2425,-11.66625 -11.66625,-11.66625c-5.85812,0 -10.73187,4.36062 -11.54562,10h-6.91c-0.81313,-5.63938 -5.68625,-10 -11.54438,-10c-5.85812,0 -10.73187,4.36062 -11.54562,10h-1.84688c-4.02062,0 -7.37062,-2.86812 -8.1175,-6.67c9.1125,-0.085 16.51,-7.53125 16.51,-16.66375c0,-9.185 -7.4825,-16.66625 -16.6675,-16.66625zM711.66625,365.83375c3.53825,-0.00699 6.93361,1.3954 9.43566,3.89721c2.50204,2.50181 3.90475,5.89704 3.89809,9.43529c0.00665,3.53837 -1.39601,6.93372 -3.89802,9.43573c-2.50201,2.50201 -5.89737,3.90467 -9.43573,3.89802c-3.53825,0.00665 -6.93348,-1.39605 -9.43529,-3.89809c-2.50181,-2.50204 -3.9042,-5.89741 -3.89721,-9.43566c-0.00699,-3.53814 1.39544,-6.93337 3.89728,-9.43522c2.50184,-2.50184 5.89708,-3.90427 9.43522,-3.89728zM708.40688,370.54688c-1.73812,0.00875 -3.40688,1.405 -3.40688,3.30687v10.65188c0,2.52688 2.94313,4.16438 5.09063,2.83312l8.52125,-5.28437c2.03562,-1.2625 2.04625,-4.37625 0.02,-5.65313l-8.52188,-5.36875c-0.50935,-0.32194 -1.10058,-0.49052 -1.70312,-0.48563zM708.33375,373.85375l8.52188,5.3675l-8.52188,5.28438zM733.33375,395.83375c2.21206,-0.007 4.33553,0.86864 5.8997,2.4328c1.56417,1.56417 2.4398,3.68764 2.4328,5.8997c0.00683,2.21212 -0.86882,4.33562 -2.43291,5.89995c-1.56409,1.56433 -3.68747,2.4403 -5.89959,2.4338c-2.21228,0.00667 -4.33588,-0.86921 -5.90021,-2.43354c-1.56433,-1.56433 -2.44021,-3.68793 -2.43354,-5.90021c-0.0065,-2.21212 0.86947,-4.33549 2.4338,-5.89959c1.56433,-1.56409 3.68783,-2.43975 5.89995,-2.43291zM763.33375,395.83375c2.21206,-0.007 4.33553,0.86864 5.8997,2.4328c1.56417,1.56417 2.4398,3.68764 2.4328,5.8997c0.00683,2.21212 -0.86882,4.33562 -2.43291,5.89995c-1.56409,1.56433 -3.68747,2.4403 -5.89959,2.4338c-2.21228,0.00667 -4.33588,-0.86921 -5.90021,-2.43354c-1.56433,-1.56433 -2.44021,-3.68793 -2.43354,-5.90021c-0.0065,-2.21212 0.86947,-4.33549 2.4338,-5.89959c1.56433,-1.56409 3.68783,-2.43975 5.89995,-2.43291zM736.72875,400.17813c-0.44223,-0.00038 -0.86648,0.17499 -1.17937,0.4875l-3.9375,3.93375l-1.30812,-1.3025c-0.65194,-0.64963 -1.70701,-0.64795 -2.35687,0.00375c-0.31199,0.31327 -0.48675,0.73766 -0.48581,1.17979c0.00094,0.44213 0.17749,0.86577 0.49081,1.17771l2.48375,2.475c0.65072,0.64841 1.70338,0.64813 2.35375,-0.00063l5.11563,-5.10875c0.31282,-0.31244 0.4887,-0.73636 0.48893,-1.17849c0.00023,-0.44213 -0.17519,-0.86624 -0.48768,-1.17901c-0.31243,-0.31205 -0.73592,-0.48738 -1.1775,-0.4875zM766.72875,400.17813c-0.44223,-0.00038 -0.86648,0.17499 -1.17937,0.4875l-3.9375,3.93375l-1.30812,-1.3025c-0.65194,-0.64963 -1.70701,-0.64795 -2.35687,0.00375c-0.31199,0.31327 -0.48675,0.73766 -0.48581,1.17979c0.00094,0.44213 0.17749,0.86577 0.49081,1.17771l2.48375,2.475c0.65072,0.64841 1.70338,0.64813 2.35375,-0.00063l5.11563,-5.10875c0.31282,-0.31244 0.4887,-0.73636 0.48893,-1.17849c0.00023,-0.44213 -0.17519,-0.86624 -0.48768,-1.17901c-0.31243,-0.31205 -0.73592,-0.48738 -1.1775,-0.4875zM733.33375,422.5c2.21212,-0.0065 4.33549,0.86947 5.89959,2.4338c1.56409,1.56433 2.43975,3.68783 2.43291,5.89995c0.007,2.21206 -0.86864,4.33553 -2.4328,5.8997c-1.56417,1.56417 -3.68764,2.4398 -5.8997,2.4328c-2.21212,0.00683 -4.33562,-0.86882 -5.89995,-2.43291c-1.56433,-1.56409 -2.4403,-3.68747 -2.4338,-5.89959c-0.00667,-2.21228 0.86921,-4.33588 2.43354,-5.90021c1.56433,-1.56433 3.68793,-2.44021 5.90021,-2.43354zM730,428.33375c-1.37063,0 -2.5,1.12937 -2.5,2.5c0,1.37187 1.13,2.5 2.5,2.5c1.37,0 2.5,-1.12813 2.5,-2.5c0,-1.37063 -1.12937,-2.5 -2.5,-2.5zM736.66625,428.33375c-1.37063,0 -2.5,1.12937 -2.5,2.5c0,1.37187 1.13,2.5 2.5,2.5c1.37,0 2.5,-1.12813 2.5,-2.5c0,-1.37063 -1.12937,-2.5 -2.5,-2.5zM730,430c0.46875,0 0.83375,0.36562 0.83375,0.83375c0,0.47062 -0.36437,0.8325 -0.83375,0.8325c-0.46875,0 -0.83375,-0.3625 -0.83375,-0.8325c0,-0.46875 0.36563,-0.83375 0.83375,-0.83375zM736.66625,430c0.46875,0 0.83375,0.36562 0.83375,0.83375c0,0.47062 -0.36437,0.8325 -0.83375,0.8325c-0.46875,0 -0.8325,-0.3625 -0.8325,-0.8325c0,-0.46875 0.36437,-0.83375 0.8325,-0.83375z" id="CompoundPath 1" fill="#2088ff"/><path d="M763.33375,419.16625c-5.86438,0 -10.7425,4.37063 -11.54813,10.01938c-0.05506,-0.00504 -0.11034,-0.00733 -0.16563,-0.00687l-1.6875,0.05625c-0.91956,0.03023 -1.64072,0.79979 -1.61125,1.71938c0.03023,0.91981 0.80018,1.64108 1.72,1.61125l1.6875,-0.05437c0.02023,-0.00088 0.04044,-0.00213 0.06063,-0.00375c0.81688,5.63562 5.68875,9.9925 11.54438,9.9925c6.42375,0 11.66625,-5.2425 11.66625,-11.66625c0,-6.42375 -5.2425,-11.6675 -11.66625,-11.6675zM763.33375,422.5c2.21212,-0.0065 4.33549,0.86947 5.89959,2.4338c1.56409,1.56433 2.43975,3.68783 2.43291,5.89995c0.007,2.21206 -0.86864,4.33553 -2.4328,5.8997c-1.56417,1.56417 -3.68764,2.4398 -5.8997,2.4328c-2.21212,0.00683 -4.33562,-0.86882 -5.89995,-2.43291c-1.56433,-1.56409 -2.4403,-3.68747 -2.4338,-5.89959c-0.00667,-2.21228 0.86921,-4.33588 2.43354,-5.90021c1.56433,-1.56433 3.68793,-2.44021 5.90021,-2.43354z" id="CompoundPath 1" fill="#79b8ff"/></g></g></g></svg>